<svg width="24" height="24" viewBox="0 0 24 24" fill="none" xmlns="http://www.w3.org/2000/svg">
<path d="M19.2902 7.25965C18.9938 4.65454 16.7259 3.81909 13.8777 3.61956L13.8144 0L11.6112 0.0386963L11.6729 3.56283C11.0937 3.57307 10.5018 3.59485 9.91387 3.61684L9.85228 0.069319L7.65028 0.107737L7.71257 3.72625C7.23576 3.74428 6.76751 3.76133 6.31074 3.76961L6.31025 3.7584L3.27148 3.81039L3.31317 6.16348C3.31317 6.16348 4.9396 6.10405 4.91308 6.13446C5.80546 6.11915 6.10494 6.63222 6.19722 7.07779L6.2694 11.2012C6.33099 11.2005 6.41138 11.2016 6.50255 11.2125C6.42919 11.2139 6.35062 11.2147 6.26981 11.2169L6.3701 16.9934C6.33586 17.2749 6.17857 17.7256 5.55512 17.7375C5.58372 17.762 3.95354 17.7651 3.95354 17.7651L3.56171 20.4039L6.42884 20.3538C6.96245 20.3451 7.48756 20.3449 8.003 20.3392L8.06787 24L10.2687 23.9619L10.2053 20.3399C10.8099 20.3418 11.3948 20.3364 11.9657 20.3259L12.0276 23.9313L14.2308 23.8926L14.1677 20.2383C17.868 19.9612 20.4442 18.9828 20.7054 15.4988C20.9164 12.6935 19.5771 11.4667 17.4657 10.9986C18.7317 10.3258 19.5103 9.16578 19.2902 7.25965ZM16.3445 15.141C16.3934 17.8767 11.7038 17.6473 10.2106 17.6748L10.1265 12.8245C11.6201 12.7988 16.2948 12.2876 16.3445 15.141ZM15.2003 8.31579C15.2431 10.8047 11.3314 10.5825 10.0877 10.6043L10.011 6.20531C11.2547 6.18353 15.1547 5.7198 15.2003 8.31579Z" fill="#F7931A"/>
</svg>
