<svg width="25" height="24" viewBox="0 0 25 24" fill="none" xmlns="http://www.w3.org/2000/svg">
<path fill-rule="evenodd" clip-rule="evenodd" d="M5.63479 16.7254C5.69932 16.6545 5.77793 16.5978 5.8656 16.559C5.95322 16.5201 6.04811 16.5001 6.14393 16.5L21.8536 16.5129C21.9206 16.513 21.986 16.5326 22.042 16.5692C22.0981 16.6058 22.1422 16.6579 22.1691 16.7191C22.1961 16.7803 22.2046 16.8481 22.1939 16.9141C22.183 16.9801 22.1533 17.0415 22.1082 17.091L18.7628 20.7746C18.6983 20.8455 18.6196 20.9023 18.5319 20.9411C18.4441 20.9799 18.3492 21 18.2532 21L2.54393 20.9871C2.47707 20.987 2.41162 20.9674 2.35567 20.9308C2.29965 20.8942 2.2555 20.8421 2.2285 20.7809C2.20156 20.7197 2.19293 20.6519 2.20377 20.5859C2.21454 20.5199 2.2443 20.4585 2.28936 20.409L5.63479 16.7254ZM22.1082 13.659C22.1533 13.7085 22.183 13.7699 22.1939 13.8359C22.2046 13.9019 22.1961 13.9697 22.1691 14.0309C22.1422 14.0921 22.0981 14.1442 22.042 14.1808C21.986 14.2174 21.9206 14.237 21.8536 14.2371L6.14436 14.25C6.04848 14.25 5.95358 14.2299 5.86579 14.1911C5.77805 14.1523 5.69932 14.0955 5.63479 14.0246L2.28936 10.3389C2.2443 10.2894 2.21454 10.2279 2.20377 10.1619C2.19293 10.0959 2.20156 10.0281 2.2285 9.96692C2.2555 9.90576 2.29965 9.85365 2.35567 9.81704C2.41162 9.78043 2.47707 9.7609 2.54393 9.76072L18.2536 9.74786C18.3496 9.74792 18.4444 9.768 18.532 9.80682C18.6198 9.84563 18.6983 9.90233 18.7628 9.97329L22.1082 13.659ZM5.63479 3.22543C5.69932 3.15447 5.77793 3.09778 5.8656 3.05896C5.95322 3.02014 6.04811 3.00006 6.14393 3L21.8536 3.01286C21.9206 3.01298 21.986 3.03257 22.042 3.06918C22.0981 3.1058 22.1422 3.15784 22.1691 3.21906C22.1961 3.28029 22.2046 3.34806 22.1939 3.41406C22.183 3.48006 22.1533 3.54153 22.1082 3.591L18.7628 7.27457C18.6983 7.34553 18.6196 7.40229 18.5319 7.4411C18.4441 7.47992 18.3492 7.5 18.2532 7.5L2.54393 7.48714C2.47707 7.48696 2.41162 7.46743 2.35567 7.43082C2.29965 7.3942 2.2555 7.3421 2.2285 7.28094C2.20156 7.21971 2.19293 7.15194 2.20377 7.08594C2.21454 7.01994 2.2443 6.95847 2.28936 6.909L5.63479 3.22543Z" fill="url(#paint0_linear_847_475)"/>
<defs>
<linearGradient id="paint0_linear_847_475" x1="2.80622" y1="21.3926" x2="21.5914" y2="2.60743" gradientUnits="userSpaceOnUse">
<stop stop-color="#9945FF"/>
<stop offset="0.2" stop-color="#7962E7"/>
<stop offset="1" stop-color="#00D18C"/>
</linearGradient>
</defs>
</svg>
