<svg width="25" height="24" viewBox="0 0 25 24" fill="none" xmlns="http://www.w3.org/2000/svg">
<g clip-path="url(#clip0_847_505)">
<path d="M14.1559 13.8181L12.9943 17.0053C12.9655 17.0917 12.9655 17.1877 12.9943 17.2837L14.9911 22.7653L17.3047 21.4309L14.5303 13.8181C14.4631 13.6453 14.2231 13.6453 14.1559 13.8181Z" fill="#4EA6F6"/>
<path d="M16.4795 8.46065C16.4123 8.28785 16.1723 8.28785 16.1051 8.46065L14.9435 11.6479C14.9147 11.7343 14.9147 11.8303 14.9435 11.9263L18.2171 20.9023L20.5307 19.5679L16.4795 8.47025V8.46065Z" fill="#4EA6F6"/>
<path d="M6.54688 20.9147L7.36287 18.6875L8.99487 20.0411L7.46847 21.4427L6.54688 20.9147Z" fill="white"/>
<path d="M11.6243 6.17732H9.38746C9.22426 6.17732 9.07066 6.28292 9.01306 6.43652L4.22266 19.5693L6.53626 20.9037L11.8163 6.43652C11.8643 6.30212 11.7683 6.16772 11.6339 6.16772L11.6243 6.17732Z" fill="white"/>
<path d="M15.5402 6.17732H13.3034C13.1402 6.17732 12.9866 6.28292 12.929 6.43652L7.45703 21.4317L9.77063 22.7661L15.7226 6.43652C15.7706 6.30212 15.6746 6.16772 15.5402 6.16772V6.17732Z" fill="white"/>
<path d="M12.3751 1.48312C12.4327 1.48312 12.4903 1.50232 12.5383 1.53112L21.3511 6.61912C21.4567 6.67672 21.5143 6.79192 21.5143 6.90712V17.0831C21.5143 17.1983 21.4471 17.3135 21.3511 17.3711L12.5383 22.4591C12.4903 22.4879 12.4327 22.5071 12.3751 22.5071C12.3175 22.5071 12.2599 22.4879 12.2119 22.4591L3.39908 17.3711C3.29348 17.3135 3.23588 17.1983 3.23588 17.0831V6.89752C3.23588 6.78232 3.30308 6.66712 3.39908 6.60952L12.2119 1.52152C12.2599 1.49272 12.3175 1.47352 12.3751 1.47352V1.48312ZM12.3751 -0.00488281C12.0583 -0.00488281 11.7511 0.0719172 11.4631 0.235117L2.65028 5.32312C2.08388 5.64952 1.73828 6.24472 1.73828 6.89752V17.0735C1.73828 17.7263 2.08388 18.3215 2.65028 18.6479L11.4631 23.7359C11.7415 23.8991 12.0583 23.9759 12.3751 23.9759C12.6919 23.9759 12.9991 23.8991 13.2871 23.7359L22.0999 18.6479C22.6663 18.3215 23.0119 17.7263 23.0119 17.0735V6.89752C23.0119 6.24472 22.6663 5.64952 22.0999 5.32312L13.2775 0.235117C12.9991 0.0719172 12.6823 -0.00488281 12.3655 -0.00488281H12.3751Z" fill="#4EA7F6"/>
</g>
<defs>
<clipPath id="clip0_847_505">
<rect width="24" height="24" fill="white" transform="translate(0.400391)"/>
</clipPath>
</defs>
</svg>
