<svg width="2048" height="1025" viewBox="0 0 2048 1025" fill="none" xmlns="http://www.w3.org/2000/svg">
<g opacity="0.4" clip-path="url(#clip0_914_8563)">
<rect width="2048" height="1024" transform="translate(0 0.478027)" fill="url(#paint0_linear_914_8563)"/>
<circle cx="1516.38" cy="898.858" r="1.3801" fill="#EC9EBF" fill-opacity="0.4"/>
<circle cx="329.043" cy="223.521" r="1.04325" fill="#EC9EBF" fill-opacity="0.4"/>
<circle cx="1823.94" cy="48.4196" r="0.941583" fill="#EC9EBF" fill-opacity="0.5"/>
<circle cx="2028.5" cy="647.982" r="0.504325" fill="#EC9EBF" fill-opacity="0.3"/>
<circle cx="226.041" cy="873.519" r="1.04114" fill="#EC9EBF" fill-opacity="0.5"/>
<circle cx="90.3839" cy="803.862" r="1.3839" fill="#EC9EBF" fill-opacity="0.5"/>
<circle cx="1368.7" cy="960.174" r="0.696123" fill="#EC9EBF" fill-opacity="0.5"/>
<circle cx="542.943" cy="239.421" r="0.943432" fill="#EC9EBF" fill-opacity="0.5"/>
<circle cx="814.662" cy="755.14" r="0.662238" fill="#EC9EBF" fill-opacity="0.5"/>
<circle cx="948.411" cy="832.889" r="1.41054" fill="#EC9EBF" fill-opacity="0.3"/>
<circle cx="1381.68" cy="903.154" r="0.675734" fill="#EC9EBF" fill-opacity="0.5"/>
<circle cx="26.272" cy="683.75" r="1.272" fill="#EC9EBF" fill-opacity="0.5"/>
<circle cx="390.371" cy="452.849" r="1.3706" fill="#EC9EBF" fill-opacity="0.4"/>
<circle cx="1774.03" cy="860.505" r="1.02666" fill="#EC9EBF" fill-opacity="0.5"/>
<circle cx="1918.31" cy="971.789" r="1.31054" fill="#EC9EBF" fill-opacity="0.4"/>
<circle cx="479.099" cy="712.577" r="1.09891" fill="#EC9EBF" fill-opacity="0.4"/>
<circle cx="2015.62" cy="812.098" r="0.61974" fill="#EC9EBF" fill-opacity="0.6"/>
<circle cx="1397.43" cy="423.91" r="1.43166" fill="#EC9EBF" fill-opacity="0.5"/>
<circle cx="1229.4" cy="2.87921" r="1.40119" fill="#EC9EBF" fill-opacity="0.4"/>
<circle cx="384.448" cy="720.926" r="1.44815" fill="#EC9EBF" fill-opacity="0.3"/>
<circle cx="863.048" cy="807.526" r="1.04821" fill="#EC9EBF" fill-opacity="0.6"/>
<circle cx="1313.91" cy="324.39" r="0.912134" fill="#EC9EBF" fill-opacity="0.4"/>
<circle cx="898.737" cy="17.2148" r="0.73673" fill="#EC9EBF" fill-opacity="0.3"/>
<circle cx="1243.5" cy="923.974" r="1.49615" fill="#EC9EBF" fill-opacity="0.6"/>
<circle cx="977.614" cy="356.092" r="0.613843" fill="#EC9EBF" fill-opacity="0.4"/>
<circle cx="1644.25" cy="514.726" r="1.2481" fill="#EC9EBF" fill-opacity="0.6"/>
<circle cx="565.099" cy="351.577" r="1.09908" fill="#EC9EBF" fill-opacity="0.6"/>
<circle cx="776.487" cy="53.9648" r="1.48676" fill="#EC9EBF" fill-opacity="0.5"/>
<circle cx="976.083" cy="636.561" r="1.08335" fill="#EC9EBF" fill-opacity="0.4"/>
<circle cx="857.102" cy="972.58" r="1.10194" fill="#EC9EBF" fill-opacity="0.3"/>
<circle cx="868.263" cy="12.7415" r="1.26352" fill="#EC9EBF" fill-opacity="0.4"/>
<circle cx="1643.43" cy="421.905" r="1.42689" fill="#EC9EBF" fill-opacity="0.4"/>
<circle cx="1138.99" cy="45.4681" r="0.99005" fill="#EC9EBF" fill-opacity="0.5"/>
<circle cx="1251.79" cy="874.265" r="0.78683" fill="#EC9EBF" fill-opacity="0.5"/>
<circle cx="40.123" cy="767.601" r="1.12295" fill="#EC9EBF" fill-opacity="0.4"/>
<circle cx="2037.06" cy="491.535" r="1.05673" fill="#EC9EBF" fill-opacity="0.4"/>
<circle cx="1454.23" cy="381.708" r="1.22962" fill="#EC9EBF" fill-opacity="0.3"/>
<circle cx="1944.4" cy="896.879" r="1.40123" fill="#EC9EBF" fill-opacity="0.4"/>
<circle cx="481.598" cy="223.076" r="0.598179" fill="#EC9EBF" fill-opacity="0.3"/>
<circle cx="324.682" cy="539.161" r="0.68247" fill="#EC9EBF" fill-opacity="0.6"/>
<circle cx="1021.25" cy="893.73" r="1.25162" fill="#EC9EBF" fill-opacity="0.3"/>
<circle cx="1334.88" cy="684.354" r="0.876211" fill="#EC9EBF" fill-opacity="0.6"/>
<circle cx="1339.95" cy="866.431" r="0.95287" fill="#EC9EBF" fill-opacity="0.3"/>
<circle cx="502.609" cy="724.087" r="0.609111" fill="#EC9EBF" fill-opacity="0.4"/>
<circle cx="406.561" cy="461.039" r="0.561114" fill="#EC9EBF" fill-opacity="0.4"/>
<circle cx="1069.23" cy="94.7091" r="1.23112" fill="#EC9EBF" fill-opacity="0.3"/>
<circle cx="167.275" cy="659.753" r="1.27476" fill="#EC9EBF" fill-opacity="0.6"/>
<circle cx="1250.35" cy="565.823" r="1.34515" fill="#EC9EBF" fill-opacity="0.5"/>
<circle cx="144.23" cy="279.708" r="1.23015" fill="#EC9EBF" fill-opacity="0.3"/>
<circle cx="1241.75" cy="56.2313" r="0.753322" fill="#EC9EBF" fill-opacity="0.5"/>
<circle cx="685.832" cy="970.31" r="0.832334" fill="#EC9EBF" fill-opacity="0.6"/>
<circle cx="1116.77" cy="494.25" r="0.772386" fill="#EC9EBF" fill-opacity="0.6"/>
<circle cx="1876.07" cy="576.547" r="1.06898" fill="#EC9EBF" fill-opacity="0.3"/>
<circle cx="471.743" cy="785.221" r="0.742633" fill="#EC9EBF" fill-opacity="0.5"/>
<circle cx="1235.61" cy="78.0908" r="0.612739" fill="#EC9EBF" fill-opacity="0.4"/>
<circle cx="945.181" cy="836.659" r="1.18097" fill="#EC9EBF" fill-opacity="0.4"/>
<circle cx="620.055" cy="657.533" r="1.05485" fill="#EC9EBF" fill-opacity="0.5"/>
<circle cx="1713.52" cy="537.996" r="0.517946" fill="#EC9EBF" fill-opacity="0.4"/>
<circle cx="1487.79" cy="83.2703" r="0.792259" fill="#EC9EBF" fill-opacity="0.5"/>
<circle cx="1988.18" cy="974.654" r="1.1759" fill="#EC9EBF" fill-opacity="0.3"/>
<circle cx="1293.52" cy="116.997" r="0.519025" fill="#EC9EBF" fill-opacity="0.4"/>
<circle cx="628.46" cy="718.938" r="1.45962" fill="#EC9EBF" fill-opacity="0.5"/>
<circle cx="1408.08" cy="714.557" r="1.07941" fill="#EC9EBF" fill-opacity="0.5"/>
<circle cx="2031.62" cy="24.0935" r="0.615513" fill="#EC9EBF" fill-opacity="0.5"/>
<circle cx="231.955" cy="799.433" r="0.954755" fill="#EC9EBF" fill-opacity="0.3"/>
<circle cx="969.864" cy="440.342" r="0.864105" fill="#EC9EBF" fill-opacity="0.4"/>
<circle cx="410.826" cy="925.304" r="0.825708" fill="#EC9EBF" fill-opacity="0.5"/>
<circle cx="144.467" cy="552.945" r="1.46723" fill="#EC9EBF" fill-opacity="0.6"/>
<circle cx="1460.33" cy="70.8103" r="1.33229" fill="#EC9EBF" fill-opacity="0.6"/>
<circle cx="2043.84" cy="395.323" r="0.844498" fill="#EC9EBF" fill-opacity="0.5"/>
<circle cx="1309.88" cy="724.355" r="0.876972" fill="#EC9EBF" fill-opacity="0.4"/>
<circle cx="1633.74" cy="533.216" r="0.738149" fill="#EC9EBF" fill-opacity="0.4"/>
<circle cx="630.251" cy="605.729" r="1.25129" fill="#EC9EBF" fill-opacity="0.5"/>
<circle cx="1247.22" cy="902.7" r="1.2216" fill="#EC9EBF" fill-opacity="0.4"/>
<circle cx="1057.76" cy="266.237" r="0.758933" fill="#EC9EBF" fill-opacity="0.5"/>
<circle cx="52.2095" cy="17.6875" r="1.20949" fill="#EC9EBF" fill-opacity="0.3"/>
<circle cx="1996.42" cy="690.902" r="1.42433" fill="#EC9EBF" fill-opacity="0.4"/>
<circle cx="187.718" cy="883.196" r="0.717649" fill="#EC9EBF" fill-opacity="0.6"/>
<circle cx="54.824" cy="520.302" r="0.82404" fill="#EC9EBF" fill-opacity="0.5"/>
<circle cx="1636.74" cy="782.217" r="0.738929" fill="#EC9EBF" fill-opacity="0.6"/>
<circle cx="1895.48" cy="375.953" r="1.47511" fill="#EC9EBF" fill-opacity="0.5"/>
<circle cx="1717.55" cy="351.032" r="0.553634" fill="#EC9EBF" fill-opacity="0.6"/>
<circle cx="327.031" cy="204.509" r="1.03133" fill="#EC9EBF" fill-opacity="0.4"/>
<circle cx="1305.84" cy="778.314" r="0.835835" fill="#EC9EBF" fill-opacity="0.3"/>
<circle cx="1197" cy="192.48" r="1.00169" fill="#EC9EBF" fill-opacity="0.4"/>
<circle cx="558.211" cy="1024.69" r="1.21081" fill="#EC9EBF" fill-opacity="0.4"/>
<circle cx="1860.08" cy="327.561" r="1.08344" fill="#EC9EBF" fill-opacity="0.3"/>
<circle cx="168.96" cy="788.438" r="0.960018" fill="#EC9EBF" fill-opacity="0.4"/>
<circle cx="1370.96" cy="439.434" r="0.956431" fill="#EC9EBF" fill-opacity="0.6"/>
<circle cx="494.309" cy="860.786" r="1.30849" fill="#EC9EBF" fill-opacity="0.4"/>
<circle cx="656.465" cy="236.943" r="1.46463" fill="#EC9EBF" fill-opacity="0.5"/>
<circle cx="1098.02" cy="283.503" r="1.02465" fill="#EC9EBF" fill-opacity="0.3"/>
<circle cx="1973.24" cy="176.719" r="1.24068" fill="#EC9EBF" fill-opacity="0.5"/>
<circle cx="1663.91" cy="138.392" r="0.914078" fill="#EC9EBF" fill-opacity="0.3"/>
<circle cx="2007.93" cy="483.405" r="0.926479" fill="#EC9EBF" fill-opacity="0.5"/>
<circle cx="1737.4" cy="610.881" r="1.40334" fill="#EC9EBF" fill-opacity="0.5"/>
<circle cx="1998.95" cy="834.428" r="0.950339" fill="#EC9EBF" fill-opacity="0.5"/>
<circle cx="37.6082" cy="817.086" r="0.60823" fill="#EC9EBF" fill-opacity="0.6"/>
<circle cx="1392.27" cy="1003.75" r="1.26871" fill="#EC9EBF" fill-opacity="0.5"/>
<circle cx="314.235" cy="41.7132" r="1.23519" fill="#EC9EBF" fill-opacity="0.5"/>
<circle cx="751.991" cy="358.469" r="0.990607" fill="#EC9EBF" fill-opacity="0.4"/>
<circle cx="406.165" cy="864.643" r="1.16523" fill="#EC9EBF" fill-opacity="0.4"/>
<circle cx="1201.72" cy="364.2" r="0.72184" fill="#EC9EBF" fill-opacity="0.4"/>
<circle cx="787.107" cy="163.585" r="1.10709" fill="#EC9EBF" fill-opacity="0.5"/>
<circle cx="1943.28" cy="659.763" r="1.28473" fill="#EC9EBF" fill-opacity="0.6"/>
<circle cx="631.946" cy="847.424" r="0.945931" fill="#EC9EBF" fill-opacity="0.4"/>
<circle cx="768.853" cy="796.331" r="0.85345" fill="#EC9EBF" fill-opacity="0.4"/>
<circle cx="629.873" cy="452.351" r="0.873153" fill="#EC9EBF" fill-opacity="0.6"/>
<circle cx="722.316" cy="845.794" r="1.31638" fill="#EC9EBF" fill-opacity="0.4"/>
<circle cx="999.048" cy="399.526" r="1.04837" fill="#EC9EBF" fill-opacity="0.6"/>
<circle cx="1083.18" cy="439.663" r="1.18484" fill="#EC9EBF" fill-opacity="0.5"/>
<circle cx="782.608" cy="515.086" r="0.607626" fill="#EC9EBF" fill-opacity="0.5"/>
<circle cx="194.926" cy="220.404" r="0.92647" fill="#EC9EBF" fill-opacity="0.3"/>
<circle cx="202.264" cy="366.742" r="1.26386" fill="#EC9EBF" fill-opacity="0.6"/>
<circle cx="1529.53" cy="809.007" r="0.528941" fill="#EC9EBF" fill-opacity="0.4"/>
<circle cx="837.752" cy="538.23" r="0.751618" fill="#EC9EBF" fill-opacity="0.4"/>
<circle cx="600.896" cy="415.374" r="0.896445" fill="#EC9EBF" fill-opacity="0.4"/>
<circle cx="1163.55" cy="437.029" r="0.550931" fill="#EC9EBF" fill-opacity="0.3"/>
<circle cx="312.996" cy="1003.47" r="0.995942" fill="#EC9EBF" fill-opacity="0.3"/>
<circle cx="1966.34" cy="79.8159" r="1.33784" fill="#EC9EBF" fill-opacity="0.5"/>
</g>
<defs>
<linearGradient id="paint0_linear_914_8563" x1="1024" y1="0" x2="1024" y2="1024" gradientUnits="userSpaceOnUse">
<stop stop-color="#0D0000"/>
<stop offset="1" stop-color="#1A001E"/>
</linearGradient>
<clipPath id="clip0_914_8563">
<rect width="2048" height="1024" fill="white" transform="translate(0 0.478027)"/>
</clipPath>
</defs>
</svg>
