<svg width="105" height="22" viewBox="0 0 105 22" fill="none" xmlns="http://www.w3.org/2000/svg">
<path d="M12.0645 14.675H18.3743V21.5H21.0034V0.5L12.0645 14.675Z" fill="#AD26FD"/>
<path d="M0 21.5L8.93898 7.325H2.62911V0.5H0V21.5Z" fill="#EC9EBF"/>
<path d="M100.274 14.8062H92.9242L90.8242 18.8749L88.1992 18.8751L96.5992 2.6001L104.999 18.8749H102.374L100.274 14.8062ZM99.2242 12.772L97.1242 8.19463L96.5992 7.17744L96.0742 8.19463L93.9742 12.772H99.2242Z" fill="#F2E2FF"/>
<path d="M78.75 18.8748H76.125V5.74976H72.1875V3.12476H82.6875V5.74976H78.75V18.8748Z" fill="#F2E2FF"/>
<path d="M55.125 3.12476H64.05V5.74976H57.75V9.03108H62.7703V11.492H57.75V16.2498H64.05V18.8748H55.125V3.12476Z" fill="#F2E2FF"/>
<path d="M41.2781 5.74976H34.125V3.12476L46.0031 3.12476L37.6031 16.2498H46.0031V18.8748H32.8125L41.2781 5.74976Z" fill="#F2E2FF"/>
</svg>
