<svg width="140" height="28" viewBox="0 0 140 28" fill="none" xmlns="http://www.w3.org/2000/svg">
<path d="M16.0859 18.9H24.4991V28H28.0045V0L16.0859 18.9Z" fill="#AD26FD"/>
<path d="M0 28L11.9186 9.1H3.50548V0H0V28Z" fill="#EC9EBF"/>
<path d="M133.698 19.0756H123.898L121.098 24.5005L117.598 24.5008L128.798 2.80078L139.998 24.5005H136.498L133.698 19.0756ZM132.298 16.3633L129.498 10.2602L128.798 8.90391L128.098 10.2602L125.298 16.3633H132.298Z" fill="#F2E2FF"/>
<path d="M105 24.502H101.5V7.00195H96.25V3.50195H110.25V7.00195H105V24.502Z" fill="#F2E2FF"/>
<path d="M73.5 3.50195H85.4V7.00195H77V11.377H83.6938V14.6583H77V21.002H85.4V24.502H73.5V3.50195Z" fill="#F2E2FF"/>
<path d="M55.0375 7.00195H45.5V3.50195L61.3375 3.50195L50.1375 21.002H61.3375V24.502H43.75L55.0375 7.00195Z" fill="#F2E2FF"/>
</svg>
