<svg width="74" height="69" viewBox="0 0 74 69" fill="none" xmlns="http://www.w3.org/2000/svg">
<rect x="0.533203" y="0.971191" width="72.8555" height="67.2983" fill="#11010F"/>
<mask id="mask0_1541_6546" style="mask-type:alpha" maskUnits="userSpaceOnUse" x="0" y="0" width="74" height="69">
<rect x="0.533203" y="0.971191" width="72.8555" height="67.2983" fill="#A931A2"/>
</mask>
<g mask="url(#mask0_1541_6546)">
<g filter="url(#filter0_d_1541_6546)">
<path d="M66 14L26.1573 14C25.0964 14 24.079 14.4214 23.3289 15.1716L14.172 24.3284C13.4219 25.0786 13.0004 26.096 13.0004 27.1568L13 63.5" stroke="#CE7DFE" stroke-width="2"/>
</g>
<mask id="path-4-inside-1_1541_6546" fill="white">
<path fill-rule="evenodd" clip-rule="evenodd" d="M33.4142 26C33.149 26 32.8946 26.1054 32.7071 26.2929L25.2929 33.7071C25.1054 33.8946 25 34.149 25 34.4142V68.2456C25 68.5046 25.1005 68.7535 25.2803 68.9399L41.0694 85.3055C41.6819 85.9405 41.232 86.9998 40.3497 86.9998H26C25.4477 86.9998 25 87.4476 25 87.9998V642C25 642.552 25.4477 643 26 643H44C44.5523 643 45 643.448 45 644V731C45 731.552 44.5523 732 44 732H26C25.4477 732 25 732.448 25 733V964.516C25 964.775 25.1005 965.023 25.2803 965.21L60.4794 1001.69C60.6678 1001.89 60.9276 1002 61.199 1002H173C173.552 1002 174 1001.55 174 1001V973.396C174 972.496 175.095 972.054 175.72 972.701L203.691 1001.69C203.88 1001.89 204.14 1002 204.411 1002H2007.59C2007.85 1002 2008.11 1001.89 2008.29 1001.71L2024.71 985.293C2024.89 985.105 2025 984.851 2025 984.586V923C2025 922.448 2024.55 922 2024 922H2015.32C2014.44 922 2013.99 920.952 2014.59 920.314L2024.73 909.561C2024.9 909.376 2025 909.13 2025 908.875V430C2025 429.448 2024.55 429 2024 429H2006C2005.45 429 2005 428.552 2005 428V308C2005 307.448 2005.45 307 2006 307H2024C2024.55 307 2025 306.552 2025 306V63.7568C2025 63.498 2024.9 63.2492 2024.72 63.0629L1989.3 26.3061C1989.11 26.1105 1988.85 26 1988.58 26H1921C1920.45 26 1920 26.4477 1920 27V94C1920 94.5523 1919.55 95 1919 95H1778H1769H1760.4C1760.14 95 1759.9 94.9004 1759.71 94.722L1742.31 78.0453C1742.11 77.8566 1742 77.5959 1742 77.3233V60.5V27C1742 26.4477 1741.55 26 1741 26H1205C1204.45 26 1204 26.4477 1204 27V60.5V77.3233C1204 77.5959 1203.89 77.8566 1203.69 78.0453L1186.29 94.722C1186.1 94.9004 1185.86 95 1185.6 95H1152H1151H891H888H863.402C863.144 95 862.896 94.9004 862.71 94.722L845.308 78.0453C845.111 77.8566 845 77.5959 845 77.3233V60.5V27C845 26.4477 844.552 26 844 26H584C583.448 26 583 26.4477 583 27V29.9998C583 30.5521 582.552 30.9998 582 30.9998H569C568.448 30.9998 568 30.5521 568 29.9998V27C568 26.4477 567.552 26 567 26H33.4142Z"/>
</mask>
<path d="M845.308 78.0453L846.346 76.9623L845.308 78.0453ZM862.71 94.722L861.672 95.805L862.71 94.722ZM1186.29 94.722L1185.25 93.639L1186.29 94.722ZM1203.69 78.0453L1204.73 79.1282L1203.69 78.0453ZM1742.31 78.0453L1741.27 79.1282L1742.31 78.0453ZM1759.71 94.722L1760.75 93.639L1759.71 94.722ZM1989.3 26.3061L1988.22 27.347L1989.3 26.3061ZM2024.72 63.0629L2023.64 64.1038L2024.72 63.0629ZM2024.73 909.561L2023.64 908.532L2024.73 909.561ZM2014.59 920.314L2015.68 921.343L2014.59 920.314ZM2024.71 985.293L2025.77 986.354L2024.71 985.293ZM2008.29 1001.71L2007.23 1000.65L2008.29 1001.71ZM203.691 1001.69L204.771 1000.65L203.691 1001.69ZM175.72 972.701L176.799 971.66L175.72 972.701ZM60.4794 1001.69L61.5589 1000.65L60.4794 1001.69ZM25.2803 965.21L24.2008 966.251L25.2803 965.21ZM41.0694 85.3055L39.9899 86.347L41.0694 85.3055ZM32.7071 26.2929L31.6464 25.2322L32.7071 26.2929ZM25.2929 33.7071L24.2322 32.6464L25.2929 33.7071ZM26.3536 34.7678L33.7678 27.3536L31.6464 25.2322L24.2322 32.6464L26.3536 34.7678ZM26.5 68.2456V34.4142H23.5V68.2456H26.5ZM42.1489 84.264L26.3598 67.8984L24.2008 69.9813L39.9899 86.347L42.1489 84.264ZM26 88.4998H40.3497V85.4998H26V88.4998ZM26.5 642V87.9998H23.5V642H26.5ZM44 641.5H26V644.5H44V641.5ZM46.5 731V644H43.5V731H46.5ZM26 733.5H44V730.5H26V733.5ZM26.5 964.516V733H23.5V964.516H26.5ZM61.5589 1000.65L26.3598 964.168L24.2008 966.251L59.3999 1002.74L61.5589 1000.65ZM173 1000.5H61.199V1003.5H173V1000.5ZM172.5 973.396V1001H175.5V973.396H172.5ZM204.771 1000.65L176.799 971.66L174.64 973.743L202.612 1002.74L204.771 1000.65ZM2007.59 1000.5H204.411V1003.5H2007.59V1000.5ZM2023.65 984.232L2007.23 1000.65L2009.35 1002.77L2025.77 986.354L2023.65 984.232ZM2023.5 923V984.586H2026.5V923H2023.5ZM2015.32 923.5H2024V920.5H2015.32V923.5ZM2023.64 908.532L2013.5 919.285L2015.68 921.343L2025.82 910.59L2023.64 908.532ZM2023.5 430V908.875H2026.5V430H2023.5ZM2006 430.5H2024V427.5H2006V430.5ZM2003.5 308V428H2006.5V308H2003.5ZM2024 305.5H2006V308.5H2024V305.5ZM2023.5 63.7568V306H2026.5V63.7568H2023.5ZM1988.22 27.347L2023.64 64.1038L2025.8 62.022L1990.38 25.2651L1988.22 27.347ZM1921 27.5H1988.58V24.5H1921V27.5ZM1921.5 94V27H1918.5V94H1921.5ZM1778 96.5H1919V93.5H1778V96.5ZM1769 96.5H1778V93.5H1769V96.5ZM1760.4 96.5H1769V93.5H1760.4V96.5ZM1741.27 79.1282L1758.67 95.805L1760.75 93.639L1743.35 76.9623L1741.27 79.1282ZM1740.5 60.5V77.3233H1743.5V60.5H1740.5ZM1740.5 27V60.5H1743.5V27H1740.5ZM1205 27.5H1741V24.5H1205V27.5ZM1205.5 60.5V27H1202.5V60.5H1205.5ZM1205.5 77.3233V60.5H1202.5V77.3233H1205.5ZM1187.33 95.805L1204.73 79.1282L1202.65 76.9623L1185.25 93.639L1187.33 95.805ZM1152 96.5H1185.6V93.5H1152V96.5ZM1151 96.5H1152V93.5H1151V96.5ZM891 96.5H1151V93.5H891V96.5ZM888 96.5H891V93.5H888V96.5ZM863.402 96.5H888V93.5H863.402V96.5ZM844.27 79.1282L861.672 95.805L863.748 93.639L846.346 76.9623L844.27 79.1282ZM843.5 60.5V77.3233H846.5V60.5H843.5ZM843.5 27V60.5H846.5V27H843.5ZM584 27.5H844V24.5H584V27.5ZM584.5 29.9998V27H581.5V29.9998H584.5ZM569 32.4998H582V29.4998H569V32.4998ZM566.5 27V29.9998H569.5V27H566.5ZM33.4142 27.5H567V24.5H33.4142V27.5ZM581.5 29.9998C581.5 29.7237 581.724 29.4998 582 29.4998V32.4998C583.381 32.4998 584.5 31.3805 584.5 29.9998H581.5ZM584 24.5C582.619 24.5 581.5 25.6193 581.5 27H584.5C584.5 27.2761 584.276 27.5 584 27.5V24.5ZM846.5 27C846.5 25.6193 845.381 24.5 844 24.5V27.5C843.724 27.5 843.5 27.2761 843.5 27H846.5ZM846.346 76.9623C846.444 77.0566 846.5 77.187 846.5 77.3233H843.5C843.5 78.0048 843.778 78.6567 844.27 79.1282L846.346 76.9623ZM863.402 93.5C863.531 93.5 863.655 93.5498 863.748 93.639L861.672 95.805C862.137 96.251 862.757 96.5 863.402 96.5V93.5ZM1185.25 93.639C1185.35 93.5498 1185.47 93.5 1185.6 93.5V96.5C1186.24 96.5 1186.86 96.251 1187.33 95.805L1185.25 93.639ZM1202.5 77.3233C1202.5 77.187 1202.56 77.0566 1202.65 76.9623L1204.73 79.1282C1205.22 78.6567 1205.5 78.0048 1205.5 77.3233H1202.5ZM1205 24.5C1203.62 24.5 1202.5 25.6193 1202.5 27H1205.5C1205.5 27.2761 1205.28 27.5 1205 27.5V24.5ZM1743.5 27C1743.5 25.6193 1742.38 24.5 1741 24.5V27.5C1740.72 27.5 1740.5 27.2761 1740.5 27H1743.5ZM1743.35 76.9623C1743.44 77.0566 1743.5 77.187 1743.5 77.3233H1740.5C1740.5 78.0048 1740.78 78.6567 1741.27 79.1282L1743.35 76.9623ZM1760.4 93.5C1760.53 93.5 1760.65 93.5498 1760.75 93.639L1758.67 95.805C1759.14 96.251 1759.76 96.5 1760.4 96.5V93.5ZM1918.5 94C1918.5 93.7239 1918.72 93.5 1919 93.5V96.5C1920.38 96.5 1921.5 95.3807 1921.5 94H1918.5ZM1921 24.5C1919.62 24.5 1918.5 25.6193 1918.5 27H1921.5C1921.5 27.2761 1921.28 27.5 1921 27.5V24.5ZM1990.38 25.2651C1989.9 24.7762 1989.25 24.5 1988.58 24.5V27.5C1988.44 27.5 1988.31 27.4448 1988.22 27.347L1990.38 25.2651ZM2026.5 63.7568C2026.5 63.1097 2026.25 62.4879 2025.8 62.022L2023.64 64.1038C2023.55 64.0106 2023.5 63.8862 2023.5 63.7568H2026.5ZM2024 308.5C2025.38 308.5 2026.5 307.381 2026.5 306H2023.5C2023.5 305.724 2023.72 305.5 2024 305.5V308.5ZM2006.5 308C2006.5 308.276 2006.28 308.5 2006 308.5V305.5C2004.62 305.5 2003.5 306.619 2003.5 308H2006.5ZM2006 427.5C2006.28 427.5 2006.5 427.724 2006.5 428H2003.5C2003.5 429.381 2004.62 430.5 2006 430.5V427.5ZM2026.5 430C2026.5 428.619 2025.38 427.5 2024 427.5V430.5C2023.72 430.5 2023.5 430.276 2023.5 430H2026.5ZM2025.82 910.59C2026.26 910.127 2026.5 909.513 2026.5 908.875H2023.5C2023.5 908.748 2023.55 908.625 2023.64 908.532L2025.82 910.59ZM2015.32 920.5C2015.76 920.5 2015.98 921.024 2015.68 921.343L2013.5 919.285C2011.99 920.88 2013.13 923.5 2015.32 923.5V920.5ZM2026.5 923C2026.5 921.619 2025.38 920.5 2024 920.5V923.5C2023.72 923.5 2023.5 923.276 2023.5 923H2026.5ZM2025.77 986.354C2026.24 985.885 2026.5 985.249 2026.5 984.586H2023.5C2023.5 984.453 2023.55 984.326 2023.65 984.232L2025.77 986.354ZM2007.59 1003.5C2008.25 1003.5 2008.88 1003.24 2009.35 1002.77L2007.23 1000.65C2007.33 1000.55 2007.45 1000.5 2007.59 1000.5V1003.5ZM202.612 1002.74C203.083 1003.22 203.733 1003.5 204.411 1003.5V1000.5C204.547 1000.5 204.676 1000.56 204.771 1000.65L202.612 1002.74ZM175.5 973.396C175.5 973.845 174.952 974.066 174.64 973.743L176.799 971.66C175.238 970.041 172.5 971.147 172.5 973.396H175.5ZM173 1003.5C174.381 1003.5 175.5 1002.38 175.5 1001H172.5C172.5 1000.72 172.724 1000.5 173 1000.5V1003.5ZM59.3999 1002.74C59.871 1003.22 60.5205 1003.5 61.199 1003.5V1000.5C61.3347 1000.5 61.4646 1000.56 61.5589 1000.65L59.3999 1002.74ZM23.5 964.516C23.5 965.163 23.7512 965.785 24.2008 966.251L26.3598 964.168C26.4498 964.262 26.5 964.386 26.5 964.516H23.5ZM26 730.5C24.6193 730.5 23.5 731.619 23.5 733H26.5C26.5 733.276 26.2761 733.5 26 733.5V730.5ZM43.5 731C43.5 730.724 43.7239 730.5 44 730.5V733.5C45.3807 733.5 46.5 732.381 46.5 731H43.5ZM44 644.5C43.7239 644.5 43.5 644.276 43.5 644H46.5C46.5 642.619 45.3807 641.5 44 641.5V644.5ZM23.5 642C23.5 643.381 24.6193 644.5 26 644.5V641.5C26.2761 641.5 26.5 641.724 26.5 642H23.5ZM26 85.4998C24.6193 85.4998 23.5 86.6191 23.5 87.9998H26.5C26.5 88.276 26.2762 88.4998 26 88.4998V85.4998ZM39.9899 86.347C39.6836 86.0295 39.9085 85.4998 40.3497 85.4998V88.4998C42.5554 88.4998 43.6803 85.8514 42.1489 84.264L39.9899 86.347ZM23.5 68.2456C23.5 68.8931 23.7512 69.5153 24.2008 69.9813L26.3598 67.8984C26.4498 67.9916 26.5 68.1161 26.5 68.2456H23.5ZM569.5 27C569.5 25.6193 568.381 24.5 567 24.5V27.5C566.724 27.5 566.5 27.2761 566.5 27H569.5ZM33.7678 27.3536C33.674 27.4473 33.5468 27.5 33.4142 27.5V24.5C32.7512 24.5 32.1153 24.7634 31.6464 25.2322L33.7678 27.3536ZM569 29.4998C569.276 29.4998 569.5 29.7237 569.5 29.9998H566.5C566.5 31.3805 567.619 32.4998 569 32.4998V29.4998ZM24.2322 32.6464C23.7634 33.1153 23.5 33.7512 23.5 34.4142H26.5C26.5 34.5468 26.4473 34.674 26.3536 34.7678L24.2322 32.6464Z" fill="#36253D" mask="url(#path-4-inside-1_1541_6546)"/>
</g>
<defs>
<filter id="filter0_d_1541_6546" x="0" y="1" width="78" height="74.5" filterUnits="userSpaceOnUse" color-interpolation-filters="sRGB">
<feFlood flood-opacity="0" result="BackgroundImageFix"/>
<feColorMatrix in="SourceAlpha" type="matrix" values="0 0 0 0 0 0 0 0 0 0 0 0 0 0 0 0 0 0 127 0" result="hardAlpha"/>
<feOffset/>
<feGaussianBlur stdDeviation="6"/>
<feComposite in2="hardAlpha" operator="out"/>
<feColorMatrix type="matrix" values="0 0 0 0 0.807843 0 0 0 0 0.490196 0 0 0 0 0.996078 0 0 0 1 0"/>
<feBlend mode="normal" in2="BackgroundImageFix" result="effect1_dropShadow_1541_6546"/>
<feBlend mode="normal" in="SourceGraphic" in2="effect1_dropShadow_1541_6546" result="shape"/>
</filter>
</defs>
</svg>
