<svg width="25" height="24" viewBox="0 0 25 24" fill="none" xmlns="http://www.w3.org/2000/svg">
<path fill-rule="evenodd" clip-rule="evenodd" d="M15.9895 4.79277C16.0846 4.79294 16.1787 4.7738 16.2661 4.7365C16.3536 4.69921 16.4325 4.64455 16.4982 4.57582L17.5156 3.51353C17.5785 3.44796 17.654 3.39582 17.7375 3.36024C17.8211 3.32467 17.911 3.30641 18.0019 3.30656H18.0443C18.2363 3.30656 18.4208 3.38885 18.548 3.53348L19.4058 4.50226C19.4865 4.59359 19.5857 4.66671 19.6969 4.7168C19.808 4.76688 19.9285 4.79278 20.0504 4.79277H22.3483C21.2315 3.30358 19.7831 2.09509 18.1179 1.26316C16.4528 0.431231 14.6167 -0.0012561 12.7553 2.74019e-06C10.8939 -0.0012561 9.05775 0.431231 7.39259 1.26316C5.72743 2.09509 4.27903 3.30358 3.16226 4.79277H15.9895ZM17.2014 8.02826H19.3173V8.02951H24.0789C24.408 8.96961 24.6237 9.96207 24.7085 10.9919H15.79C15.6681 10.992 15.5476 10.9661 15.4365 10.916C15.3254 10.8659 15.2262 10.7928 15.1454 10.7014L14.2876 9.73391C14.2246 9.66232 14.1472 9.60495 14.0603 9.56561C13.9735 9.52627 13.8792 9.50586 13.7839 9.50574H13.7415C13.6506 9.50575 13.5606 9.5242 13.477 9.55999C13.3934 9.59578 13.318 9.64816 13.2552 9.71396L12.2378 10.775C12.1722 10.8437 12.0932 10.8984 12.0058 10.9357C11.9183 10.973 11.8242 10.9921 11.7291 10.9919H0.800781C0.883926 9.98172 1.09551 8.98622 1.43043 8.02951H13.0059C13.3699 8.02951 13.7166 7.87366 13.956 7.60185L14.6916 6.77022C14.7546 6.6984 14.8323 6.64086 14.9194 6.60144C15.0065 6.56202 15.101 6.54163 15.1965 6.54163C15.2921 6.54163 15.3866 6.56202 15.4737 6.60144C15.5608 6.64086 15.6384 6.6984 15.7015 6.77022L16.5593 7.739C16.7214 7.92228 16.957 8.02826 17.2014 8.02826ZM7.9226 17.0016C7.85692 17.0703 7.77796 17.125 7.69052 17.1623C7.60307 17.1996 7.50897 17.2187 7.4139 17.2186V17.2198H1.94661C1.4884 16.2702 1.15843 15.264 0.965361 14.2274H8.7455C9.10957 14.2274 9.45619 14.0716 9.69558 13.7998L10.4312 12.9682C10.4943 12.8963 10.5719 12.8388 10.659 12.7994C10.7461 12.76 10.8406 12.7396 10.9362 12.7396C11.0317 12.7396 11.1262 12.76 11.2133 12.7994C11.3004 12.8388 11.3781 12.8963 11.4411 12.9682L12.2977 13.9369C12.4623 14.1215 12.6967 14.2274 12.9423 14.2274H24.5452C24.3516 15.264 24.0212 16.2702 23.5627 17.2198H11.476C11.354 17.2196 11.2335 17.1936 11.1223 17.1433C11.0112 17.093 10.912 17.0196 10.8314 16.928L9.97362 15.9593C9.91053 15.8879 9.833 15.8308 9.74616 15.7917C9.65932 15.7525 9.56515 15.7323 9.4699 15.7323H9.42751C9.33659 15.7324 9.24662 15.7508 9.16304 15.7866C9.07946 15.8224 9.004 15.8748 8.94125 15.9406L7.92385 17.0004L7.9226 17.0016ZM8.22808 20.1847H21.5266C20.4055 21.39 19.0478 22.3509 17.5383 23.0074C16.0288 23.6639 14.4001 24.0018 12.754 24C11.1082 24.0017 9.47966 23.6637 7.97039 23.0072C6.46113 22.3508 5.10357 21.3899 3.98266 20.1847H4.03253C4.39411 20.1847 4.74073 20.0289 4.98136 19.7571L5.71698 18.9254C5.78006 18.8536 5.85772 18.7961 5.9448 18.7567C6.03188 18.7172 6.12636 18.6969 6.22194 18.6969C6.31753 18.6969 6.41201 18.7172 6.49909 18.7567C6.58617 18.7961 6.66383 18.8536 6.7269 18.9254L7.58347 19.8942C7.7468 20.0788 7.98245 20.1847 8.22808 20.1847Z" fill="white"/>
</svg>
