<svg width="25" height="24" viewBox="0 0 25 24" fill="none" xmlns="http://www.w3.org/2000/svg">
<g clip-path="url(#clip0_1770_8722)">
<mask id="mask0_1770_8722" style="mask-type:luminance" maskUnits="userSpaceOnUse" x="0" y="0" width="25" height="24">
<path d="M24.5996 0H0.599609V24H24.5996V0Z" fill="white"/>
</mask>
<g mask="url(#mask0_1770_8722)">
<path d="M24.5996 12C24.5996 18.6274 19.227 24 12.5996 24C5.9722 24 0.599609 18.6274 0.599609 12C0.599609 5.37259 5.9722 0 12.5996 0C19.227 0 24.5996 5.37259 24.5996 12Z" fill="#2C3B4D"/>
<mask id="mask1_1770_8722" style="mask-type:luminance" maskUnits="userSpaceOnUse" x="3" y="3" width="19" height="18">
<path d="M21.5996 3H3.59961V21H21.5996V3Z" fill="white"/>
</mask>
<g mask="url(#mask1_1770_8722)">
<path d="M5.4375 17.0354C6.18014 18.0684 7.13274 18.9327 8.23284 19.5717C9.33294 20.2107 10.5557 20.6099 11.8208 20.7433C11.17 19.7637 10.2238 18.8625 9.04255 18.1764C7.86133 17.4903 6.61039 17.1156 5.4375 17.0354Z" fill="url(#paint0_linear_1770_8722)"/>
<path d="M10.6303 15.4445C8.35451 14.1224 5.89137 13.7854 4.12891 14.3806C4.29905 14.943 4.52344 15.4874 4.79891 16.0063C6.33019 15.9709 8.00208 16.3868 9.55779 17.2904C11.1135 18.194 12.3033 19.441 13.0315 20.789C13.619 20.771 14.2034 20.6962 14.7766 20.5656C14.4204 18.74 12.9054 16.7669 10.6303 15.4445Z" fill="url(#paint1_linear_1770_8722)"/>
<path d="M21.4756 10.0779C21.1862 8.90098 20.6627 7.79445 19.9362 6.82436C19.2097 5.85428 18.2952 5.04053 17.2472 4.43171C16.1993 3.82289 15.0394 3.43149 13.8369 3.28087C12.6343 3.13025 11.4138 3.22351 10.248 3.55506C12.1955 3.7934 14.3572 4.52447 16.4771 5.75605C18.5971 6.98763 20.3044 8.50311 21.4756 10.0779Z" fill="url(#paint2_linear_1770_8722)"/>
<path d="M18.6421 14.3941C17.6453 12.7387 15.9377 11.1534 13.8342 9.9314C11.7305 8.70936 9.50812 8.01134 7.57794 7.96517C5.87984 7.92495 4.60536 8.41859 4.08222 9.31918C4.07924 9.32455 4.07507 9.32961 4.0718 9.33498C4.02473 9.50389 3.98421 9.6731 3.94727 9.84291C4.67775 9.55453 5.52413 9.39396 6.46524 9.37609C8.55807 9.33676 10.9003 10.0062 13.0616 11.2619C15.223 12.5176 16.9661 14.2214 17.9682 16.0583C18.4175 16.8859 18.6979 17.7007 18.809 18.4791C18.9383 18.3635 19.0652 18.2441 19.1882 18.1198C19.1915 18.1142 19.1936 18.1082 19.1969 18.1023C19.72 17.2008 19.5177 15.8494 18.6421 14.3941Z" fill="url(#paint3_linear_1770_8722)"/>
<path d="M12.2331 12.6859C9.01182 10.8144 5.45205 10.5212 3.74023 11.8273C3.7436 12.2361 3.77485 12.6442 3.83378 13.0488C4.33734 12.8961 4.85632 12.8 5.38114 12.7622C7.29405 12.6182 9.40298 13.1512 11.3167 14.2636C13.2306 15.376 14.7392 16.9448 15.562 18.6766C15.7895 19.151 15.9629 19.6495 16.0792 20.1626C16.4599 20.0134 16.8301 19.8385 17.1871 19.6392C17.4737 17.505 15.4554 14.5577 12.2331 12.6859Z" fill="url(#paint4_linear_1770_8722)"/>
<path d="M20.2988 11.6231C19.2906 9.96945 17.568 8.37979 15.4496 7.1497C13.3312 5.91962 11.1001 5.21058 9.16358 5.15368C7.68742 5.11108 6.54402 5.46887 5.95117 6.14484C8.41283 5.72776 11.6598 6.42875 14.807 8.25705C17.9541 10.0853 20.1724 12.5592 21.0286 14.9041C21.3221 14.0548 21.0668 12.8843 20.2988 11.6231Z" fill="url(#paint5_linear_1770_8722)"/>
</g>
</g>
</g>
<defs>
<linearGradient id="paint0_linear_1770_8722" x1="15.55" y1="6.78154" x2="7.40182" y2="20.7891" gradientUnits="userSpaceOnUse">
<stop offset="0.0001" stop-color="#A4D756"/>
<stop offset="1" stop-color="#00B6E7"/>
</linearGradient>
<linearGradient id="paint1_linear_1770_8722" x1="15.5505" y1="6.78149" x2="7.40229" y2="20.789" gradientUnits="userSpaceOnUse">
<stop offset="0.0001" stop-color="#A4D756"/>
<stop offset="1" stop-color="#00B6E7"/>
</linearGradient>
<linearGradient id="paint2_linear_1770_8722" x1="15.551" y1="6.7815" x2="7.40282" y2="20.7891" gradientUnits="userSpaceOnUse">
<stop offset="0.0001" stop-color="#A4D756"/>
<stop offset="1" stop-color="#00B6E7"/>
</linearGradient>
<linearGradient id="paint3_linear_1770_8722" x1="15.5511" y1="6.78154" x2="7.40291" y2="20.7891" gradientUnits="userSpaceOnUse">
<stop offset="0.0001" stop-color="#A4D756"/>
<stop offset="1" stop-color="#00B6E7"/>
</linearGradient>
<linearGradient id="paint4_linear_1770_8722" x1="15.5505" y1="6.78155" x2="7.40235" y2="20.7891" gradientUnits="userSpaceOnUse">
<stop offset="0.0001" stop-color="#A4D756"/>
<stop offset="1" stop-color="#00B6E7"/>
</linearGradient>
<linearGradient id="paint5_linear_1770_8722" x1="15.5508" y1="6.78145" x2="7.40252" y2="20.789" gradientUnits="userSpaceOnUse">
<stop offset="0.0001" stop-color="#A4D756"/>
<stop offset="1" stop-color="#00B6E7"/>
</linearGradient>
<clipPath id="clip0_1770_8722">
<rect width="24" height="24" fill="white" transform="translate(0.599609)"/>
</clipPath>
</defs>
</svg>
