<svg width="24" height="24" viewBox="0 0 24 24" fill="none" xmlns="http://www.w3.org/2000/svg">
<g clip-path="url(#clip0_1770_8823)">
<path d="M24 12C24 5.37258 18.6274 0 12 0C5.37258 0 0 5.37258 0 12C0 18.6274 5.37258 24 12 24C18.6274 24 24 18.6274 24 12Z" fill="#8523FF"/>
<path fill-rule="evenodd" clip-rule="evenodd" d="M21.3898 12.2792C21.3879 12.3426 21.3015 12.3594 21.2766 12.3009C21.2659 12.2757 21.2549 12.2504 21.2438 12.225C21.2234 12.1787 21.2291 12.1248 21.2595 12.0843C21.2658 12.076 21.2786 12.0593 21.2939 12.0393C21.335 11.9856 21.3942 11.9936 21.3942 12.0532C21.3942 12.1314 21.3923 12.1991 21.3898 12.2792ZM20.9353 11.0378C20.8653 11.1638 20.6858 11.1696 20.6081 11.0481C20.596 11.0293 20.5838 11.0105 20.5716 10.9916C20.2914 10.5615 19.969 10.1392 19.6089 9.72885C19.5205 9.6281 19.5928 9.46998 19.7269 9.46988H19.7301C20.5716 9.46988 21.0127 9.67774 21.1474 9.93155C21.2597 10.1438 21.2253 10.515 20.9353 11.0378ZM20.7472 15.4382C20.7021 15.553 20.6548 15.6671 20.6052 15.7801C20.5975 15.7957 20.5902 15.8114 20.5822 15.8269C20.2725 16.423 19.7528 16.8924 19.0583 17.2191C18.9025 17.2923 18.732 17.1497 18.7784 16.984C19.009 16.1586 19.1836 15.2636 19.2967 14.3252C19.3177 14.1502 19.404 13.9896 19.5374 13.8743C19.823 13.6272 20.0897 13.3805 20.335 13.1356L20.3377 13.1328C20.4584 13.0123 20.6643 13.0642 20.7135 13.2276C20.9559 14.0333 20.9693 14.7838 20.7472 15.4382ZM18.8595 18.4179C18.7889 18.4935 18.7167 18.5681 18.6433 18.6415C18.5152 18.7694 18.3842 18.8931 18.2503 19.0125C18.1658 19.0877 18.0381 18.9936 18.0859 18.891C18.0995 18.8617 18.1131 18.8323 18.1265 18.8025C18.1828 18.6785 18.2371 18.5512 18.29 18.4215C18.3025 18.391 18.3288 18.3681 18.3609 18.3599C18.4941 18.3261 18.6239 18.2888 18.7504 18.248C18.8529 18.2151 18.9332 18.3393 18.8595 18.4179ZM17.4732 17.6729C17.1929 17.7135 16.8981 17.7398 16.5897 17.7506C15.8372 17.777 15.0415 17.712 14.2242 17.5616C14.1245 17.5432 14.1054 17.4085 14.1957 17.3628C14.374 17.2726 14.5524 17.1803 14.7307 17.0858C15.9813 16.4229 17.1482 15.6983 18.1697 14.9554C18.2463 14.8997 18.3519 14.9655 18.3363 15.0589C18.1947 15.9103 17.9985 16.7118 17.7522 17.4394C17.7102 17.5633 17.6028 17.6541 17.4732 17.6729ZM17.1841 18.8072C16.5136 20.126 15.6878 20.8664 14.8873 20.8515C14.0173 20.836 13.1498 19.93 12.5073 18.366L12.5066 18.3643C12.4658 18.265 12.5127 18.1513 12.611 18.1086C12.6179 18.1056 12.6247 18.1026 12.6315 18.0996C12.6737 18.0812 12.721 18.0779 12.7654 18.0905C13.9671 18.4277 15.1512 18.6037 16.2605 18.6037C16.3811 18.6037 16.5008 18.6017 16.6195 18.5975C16.7585 18.5926 16.8952 18.5847 17.0296 18.574C17.1542 18.5642 17.2409 18.6958 17.1841 18.8072ZM13.2134 21.3151C12.8148 21.3663 12.4102 21.3926 12.0017 21.3926C10.176 21.3926 8.42983 20.8752 6.93064 19.9098C6.8275 19.8433 6.87134 19.6832 6.99391 19.6776C7.01933 19.6764 7.04309 19.6751 7.064 19.6738C7.44499 19.649 7.86272 19.5932 8.31536 19.506C9.2782 19.3208 10.3485 19.0031 11.4692 18.5752C11.5697 18.5369 11.6818 18.5867 11.7227 18.6862L11.7234 18.688C12.1578 19.7454 12.6923 20.5444 13.2924 21.0526C13.3916 21.1367 13.3424 21.2985 13.2134 21.3151ZM9.02901 15.5559C8.38059 15.1694 8.35651 14.2683 8.97362 13.8336C9.01905 13.8016 9.06475 13.7697 9.11073 13.7377C9.77666 13.2755 10.6675 13.7638 10.7518 14.5701C10.7782 14.8224 10.8092 15.0715 10.8447 15.3167C10.9227 15.8553 10.3842 16.2926 9.9013 16.0417C9.60333 15.8869 9.31232 15.7247 9.02901 15.5559ZM5.20795 18.3797C5.0105 18.0072 5.26569 17.1443 6.56209 15.8328C6.69747 15.6961 6.68512 15.471 6.534 15.3519C6.48206 15.3111 6.43049 15.2698 6.37928 15.2286C6.25017 15.1242 6.06331 15.1338 5.94607 15.2512C5.92038 15.2769 5.90122 15.2963 5.89561 15.3021C5.24755 15.9672 4.79399 16.583 4.5399 17.1368C4.46788 17.2938 4.25036 17.3107 4.15513 17.1667C3.14938 15.6463 2.60916 13.8648 2.60916 12C2.60916 11.3333 2.67842 10.6772 2.81315 10.0399C2.8335 9.94352 2.96952 9.93735 2.99807 10.0316C3.19294 10.675 3.51011 11.3405 3.94838 12.0134C4.53833 12.9194 5.31634 13.7903 6.23829 14.5893C6.55297 14.8619 6.88533 15.1257 7.23197 15.3802C7.93465 15.8958 8.69819 16.3716 9.51055 16.7937C9.87063 16.9808 10.2213 17.1594 10.5805 17.3211C10.7804 17.4111 11.008 17.4181 11.2121 17.338C11.3814 17.2717 11.552 17.2027 11.7235 17.1309C11.9101 17.0531 12.0113 16.8497 11.9619 16.6536C11.9557 16.6291 11.9508 16.6094 11.9481 16.5978C11.6653 15.4077 11.5081 14.0679 11.4895 12.6646C11.4893 12.648 11.4889 12.6309 11.4887 12.6141C11.4879 12.5374 11.4883 12.4601 11.487 12.3836C11.4865 12.3592 11.4872 12.3179 11.4875 12.2934C11.4877 12.2837 11.4875 12.2741 11.4875 12.2645C11.4879 12.1767 11.489 12.0885 11.4905 12.0004C11.4949 11.7598 11.5035 11.5209 11.5159 11.2839C11.6031 9.59047 11.8899 7.99908 12.3467 6.66058C12.389 6.53671 12.323 6.40225 12.1991 6.35998C12.0784 6.31873 11.9577 6.27931 11.8373 6.24155C11.7154 6.20333 11.5852 6.26909 11.5441 6.39001C11.0489 7.8437 10.7433 9.56833 10.6618 11.3933C10.6514 11.6249 10.5254 11.8356 10.326 11.9537C9.24513 12.5943 8.25246 13.2734 7.39489 13.958C7.21623 14.1006 6.96103 14.0952 6.78827 13.9453C5.92876 13.2001 5.20537 12.3907 4.65852 11.5509C3.58388 9.90079 3.3285 8.34625 3.93964 7.17446C3.94129 7.17169 3.94277 7.16884 3.94433 7.16617C4.02224 7.03687 4.10329 6.90932 4.18764 6.78352C4.88986 5.85402 6.19684 5.31537 7.93023 5.25449C8.03991 5.25063 8.15033 5.24869 8.26176 5.24869C9.32492 5.24869 10.4659 5.42411 11.6263 5.75893C11.6517 5.76628 11.6776 5.77374 11.703 5.78118C11.7226 5.78698 11.7422 5.79241 11.7619 5.79831C12.03 5.87843 12.2989 5.9673 12.5682 6.06418C12.5745 6.06639 12.5808 6.06869 12.5871 6.0709C12.6573 6.09623 12.7274 6.1222 12.7974 6.14863C12.8194 6.15692 12.8414 6.1653 12.8633 6.17377C12.8843 6.18185 12.9053 6.18965 12.9264 6.19782C13.4931 6.41717 14.0595 6.67277 14.6186 6.96338C15.9048 7.63162 15.5448 9.45244 14.2056 10.0069C13.505 10.2969 12.7896 10.6272 12.0729 10.9926C11.9842 11.0379 11.9258 11.1271 11.9202 11.2266C11.9134 11.3457 11.9046 11.5854 11.8982 11.7758C11.8943 11.8953 12.0207 11.9745 12.1266 11.9189L12.1277 11.9183C14.0317 10.9185 15.9318 10.1713 17.5636 9.77637C17.8687 9.7026 18.0661 9.40966 18.0233 9.09884C17.9933 8.88168 17.9595 8.66794 17.9221 8.45796C17.8751 8.19421 17.7307 7.95836 17.5176 7.79609C16.7533 7.21387 15.911 6.67982 15.0093 6.21125C14.4017 5.89556 13.7851 5.61891 13.1673 5.38297C13.0351 5.3325 12.9785 5.17631 13.0475 5.05281C13.684 3.91408 14.4411 3.27633 15.1787 3.27633C15.1863 3.27633 15.194 3.27633 15.2016 3.27651C16.0716 3.29208 16.9392 4.198 17.5816 5.76202C17.9066 6.5533 18.1585 7.46572 18.3307 8.45728C18.3308 8.45784 18.3301 8.4582 18.3297 8.45783C18.3292 8.45745 18.3285 8.45785 18.3286 8.45843C18.4017 8.87989 18.4607 9.3154 18.5045 9.76214C18.5048 9.76488 18.5035 9.76754 18.5011 9.76892C18.4971 9.77126 18.4964 9.77663 18.4997 9.7799C18.5017 9.78187 18.5037 9.78384 18.5057 9.78582C18.5079 9.7881 18.5093 9.7911 18.5096 9.79431C18.5821 10.5461 18.6127 11.3289 18.5984 12.1276C18.5814 13.084 18.1056 13.9714 17.3219 14.5198C16.4197 15.1512 15.4097 15.7667 14.3337 16.3369C13.8139 16.6125 13.2941 16.8689 12.7794 17.1051C12.7714 17.1087 12.7635 17.1123 12.7554 17.116C12.7163 17.1339 12.677 17.1521 12.6378 17.1698C12.6381 17.1699 12.6375 17.1699 12.6378 17.1698C12.6375 17.1698 12.6363 17.1698 12.636 17.1699C12.2098 17.3627 11.7875 17.5411 11.3723 17.7041C11.3489 17.7133 11.3255 17.7226 11.3021 17.7317C11.2729 17.7431 11.2437 17.7543 11.2146 17.7656C11.1449 17.7923 11.0755 17.8186 11.0062 17.8445C10.9872 17.8516 10.968 17.859 10.9489 17.866C10.8649 17.8972 10.7812 17.9275 10.6979 17.9574C10.6876 17.961 10.6772 17.965 10.667 17.9686C9.77682 18.2856 8.928 18.5252 8.15521 18.6739C6.28765 19.0334 5.40825 18.7576 5.20795 18.3797ZM6.54929 4.35014C8.12998 3.21822 10.0188 2.60746 12.0017 2.60746C12.525 2.60746 13.0417 2.65028 13.5479 2.73381C13.6835 2.75619 13.729 2.92923 13.6208 3.01405C13.1303 3.39863 12.6745 3.96767 12.2711 4.70562C12.1727 4.88566 11.9639 4.9737 11.7665 4.91808C10.4301 4.54188 9.11528 4.36487 7.90048 4.40751C7.45235 4.42326 7.02799 4.46866 6.62931 4.54215C6.51733 4.56278 6.45673 4.41635 6.54929 4.35014ZM19.4422 11.1954C19.4394 11.0878 19.5775 11.0418 19.64 11.1295C19.7167 11.2371 19.7906 11.3454 19.8615 11.4541C19.9556 11.5987 20.0432 11.7425 20.1246 11.8853C20.1753 11.9744 20.1632 12.0861 20.0941 12.1618C19.9844 12.2822 19.8654 12.4067 19.7362 12.5358C19.6891 12.5829 19.641 12.6301 19.592 12.6773C19.5312 12.7361 19.4293 12.6913 19.4326 12.6068C19.4386 12.4527 19.443 12.2981 19.4458 12.1427C19.4515 11.8244 19.4501 11.5085 19.4422 11.1954ZM18.4681 5.18782C18.5271 5.24381 18.5855 5.30073 18.6433 5.35847C19.5483 6.26356 20.2455 7.32116 20.7117 8.47297C20.7587 8.5891 20.6601 8.71067 20.5368 8.68847C20.267 8.64003 19.9635 8.61839 19.6275 8.62401C19.3946 8.62788 19.1921 8.46469 19.1512 8.23537C18.9686 7.21139 18.7046 6.2655 18.3655 5.43997C18.3462 5.39291 18.3266 5.3464 18.3068 5.30036C18.2637 5.19988 18.3888 5.11249 18.4681 5.18782ZM22.0205 9.87021C21.6158 7.94758 20.6643 6.18105 19.2424 4.75912C17.3084 2.82507 14.7369 1.76001 12.0017 1.76001C9.2665 1.76001 6.69498 2.82507 4.76092 4.75912C4.29051 5.22954 3.87213 5.7378 3.50735 6.27673C3.39886 6.42113 3.30171 6.57364 3.21532 6.73324C2.26777 8.30776 1.76172 10.115 1.76172 12C1.76172 14.7352 2.82687 17.3067 4.76092 19.2407C6.69498 21.1748 9.2665 22.24 12.0017 22.24C14.7369 22.24 17.3084 21.1748 19.2424 19.2407C20.1552 18.328 20.8742 17.2731 21.3793 16.1262C21.441 15.9991 21.4948 15.869 21.5412 15.7363C22.0009 14.5615 22.2417 13.2993 22.2417 12C22.2417 11.2848 22.1682 10.5811 22.0261 9.89674C22.0242 9.8879 22.0224 9.87906 22.0205 9.87021Z" fill="white"/>
</g>
<defs>
<clipPath id="clip0_1770_8823">
<rect width="24" height="24" fill="white"/>
</clipPath>
</defs>
</svg>
