<svg width="25" height="24" viewBox="0 0 25 24" fill="none" xmlns="http://www.w3.org/2000/svg">
<g clip-path="url(#clip0_1770_8803)">
<mask id="mask0_1770_8803" style="mask-type:luminance" maskUnits="userSpaceOnUse" x="0" y="0" width="25" height="24">
<path d="M24.4004 0H0.400391V24H24.4004V0Z" fill="white"/>
</mask>
<g mask="url(#mask0_1770_8803)">
<path d="M24.4004 12C24.4004 18.6274 19.0278 24 12.4004 24C5.77298 24 0.400391 18.6274 0.400391 12C0.400391 5.37259 5.77298 0 12.4004 0C19.0278 0 24.4004 5.37259 24.4004 12Z" fill="#FFEFCF"/>
<path fill-rule="evenodd" clip-rule="evenodd" d="M12.3552 20.9773C14.9919 20.9773 17.3639 19.8455 19.0103 18.0418L18.5722 17.5591C18.0301 16.9617 17.1059 16.9106 16.5007 17.4447L15.5662 18.2693C14.2948 19.3913 12.3625 19.3205 11.1773 18.1086L10.5929 17.5112C10.0318 16.9374 9.11237 16.9175 8.52662 17.4663L6.81265 19.0721C8.34066 20.2658 10.2647 20.9773 12.3552 20.9773ZM19.8387 16.4196L20.0514 16.654C20.8801 15.294 21.3574 13.697 21.3574 11.9886C21.3574 9.91716 20.6557 8.00933 19.4765 6.48927C19.2573 6.54537 19.0478 6.65273 18.8669 6.81239L17.9325 7.63706C16.6611 8.75901 14.7288 8.68829 13.5436 7.47643L12.9593 6.87895C12.3981 6.3052 11.4787 6.2852 10.8929 6.834L8.48852 9.0867L7.31882 7.84894L9.72319 5.59623C10.9872 4.41198 12.9713 4.45514 14.1821 5.69323L14.7664 6.29072C15.3157 6.85231 16.2111 6.88508 16.8003 6.36515L17.7348 5.54048C17.8916 5.40208 18.0584 5.2819 18.2325 5.17977C16.6554 3.82139 14.6014 3 12.3552 3C7.8392 3 4.09985 6.32041 3.45228 10.6496C4.68459 9.9413 6.28467 10.1265 7.31973 11.1848L7.9955 11.8758C8.52075 12.4129 9.36807 12.4695 9.96073 12.0072L11.964 10.4445C13.1663 9.50661 14.8685 9.55198 16.0187 10.5526L18.7464 12.9256L17.6234 14.2054L14.8957 11.8325C14.3626 11.3688 13.5738 11.3478 13.0167 11.7825L11.0134 13.3451C9.73449 14.3428 7.90608 14.2205 6.77262 13.0615L6.09686 12.3706C5.53573 11.7968 4.6163 11.7768 4.03054 12.3256L3.40039 12.916C3.59527 14.8146 4.38195 16.5381 5.5732 17.8997L7.35692 16.2285C8.62092 15.0442 10.605 15.0873 11.8158 16.3255L12.4002 16.923C12.9494 17.4845 13.8449 17.5173 14.434 16.9974L15.3685 16.1728C16.6744 15.0203 18.6688 15.1305 19.8387 16.4196Z" fill="url(#paint0_linear_1770_8803)"/>
</g>
</g>
<defs>
<linearGradient id="paint0_linear_1770_8803" x1="12.3789" y1="3" x2="15.9166" y2="20.9758" gradientUnits="userSpaceOnUse">
<stop stop-color="#780000"/>
<stop offset="1" stop-color="#C1121F"/>
</linearGradient>
<clipPath id="clip0_1770_8803">
<rect width="24" height="24" fill="white" transform="translate(0.400391)"/>
</clipPath>
</defs>
</svg>
