<svg width="25" height="24" viewBox="0 0 25 24" fill="none" xmlns="http://www.w3.org/2000/svg">
<g clip-path="url(#clip0_1770_8902)">
<mask id="mask0_1770_8902" style="mask-type:luminance" maskUnits="userSpaceOnUse" x="0" y="0" width="25" height="24">
<path d="M24.3984 0H0.398438V24H24.3984V0Z" fill="white"/>
</mask>
<g mask="url(#mask0_1770_8902)">
<path d="M24.3984 12C24.3984 18.6274 19.0258 24 12.3984 24C5.77103 24 0.398438 18.6274 0.398438 12C0.398438 5.37259 5.77103 0 12.3984 0C19.0258 0 24.3984 5.37259 24.3984 12Z" fill="#E6DAFE"/>
<path d="M14.2054 11.0198C14.2054 11.8722 13.5148 12.5633 12.663 12.5633V14.1069C14.3665 14.1069 15.7478 12.7246 15.7478 11.0198C15.7478 9.31492 14.3665 7.93262 12.663 7.93262C12.1014 7.93262 11.574 8.08271 11.1206 8.3459C10.1983 8.87927 9.57812 9.87693 9.57812 11.0198V18.7377L11.1206 20.2812V11.0198C11.1206 10.1674 11.8112 9.47618 12.663 9.47618C13.5148 9.47618 14.2054 10.1674 14.2054 11.0198Z" fill="#242235"/>
<path d="M12.6619 4.8457C11.538 4.8457 10.4847 5.14661 9.57703 5.67231C8.99592 6.00812 8.47551 6.43606 8.03463 6.93663C7.0747 8.02503 6.49219 9.45481 6.49219 11.02V15.6508L8.03463 17.1944V11.02C8.03463 9.64889 8.63038 8.41669 9.57703 7.56843C10.0221 7.17051 10.5446 6.85635 11.1195 6.65389C11.6015 6.48214 12.1212 6.38929 12.6619 6.38929C15.2172 6.38929 17.2892 8.46274 17.2892 11.02C17.2892 13.5773 15.2172 15.6508 12.6619 15.6508V17.1944C16.0697 17.1944 18.8316 14.4297 18.8316 11.02C18.8316 7.61033 16.0697 4.8457 12.6619 4.8457Z" fill="#242235"/>
</g>
</g>
<defs>
<clipPath id="clip0_1770_8902">
<rect width="24" height="24" fill="white" transform="translate(0.398438)"/>
</clipPath>
</defs>
</svg>
