<svg width="25" height="24" viewBox="0 0 25 24" fill="none" xmlns="http://www.w3.org/2000/svg">
<g clip-path="url(#clip0_1770_8786)">
<path d="M12.7976 23.2933C19.0349 23.2933 24.0913 18.2369 24.0913 11.9996C24.0913 5.76229 19.0349 0.705933 12.7976 0.705933C6.56027 0.705933 1.50391 5.76229 1.50391 11.9996C1.50391 18.2369 6.56027 23.2933 12.7976 23.2933Z" fill="url(#paint0_linear_1770_8786)"/>
<path d="M5.10632 14.1211C4.72084 13.7355 4.4623 13.2902 4.33073 12.7854C4.20226 12.2774 4.20226 11.7694 4.33073 11.2615C4.4623 10.7504 4.71931 10.3037 5.10174 9.92114C5.49029 9.53248 5.93851 9.27392 6.44638 9.14538C6.95424 9.01691 7.46212 9.01691 7.96999 9.14538C8.47787 9.27392 8.92455 9.531 9.31003 9.91655L10.2646 10.8713L11.6781 9.45752L10.7235 8.50274C10.338 8.11719 10.0794 7.67192 9.94794 7.16707C9.8194 6.65907 9.81792 6.15263 9.94335 5.64772C10.0718 5.13974 10.3304 4.69144 10.719 4.3028C11.1045 3.91722 11.5511 3.6602 12.059 3.53166C12.5668 3.40314 13.0732 3.40467 13.578 3.53625C14.0859 3.66478 14.5326 3.92182 14.9181 4.30741C15.3035 4.69297 15.5606 5.13974 15.6891 5.64772C15.8206 6.15263 15.8222 6.65907 15.6936 7.16707C15.5682 7.67806 15.3128 8.12644 14.9272 8.51199L13.9773 9.46211L15.3861 10.8713L16.3361 9.92114C16.7216 9.53559 17.1668 9.27695 17.6716 9.14538C18.1794 9.01691 18.6858 9.01839 19.1906 9.14997C19.6985 9.27851 20.1467 9.53707 20.5353 9.92573C20.9207 10.3113 21.1778 10.758 21.3062 11.2661C21.4379 11.771 21.4379 12.2758 21.3062 12.7808C21.1778 13.2888 20.9207 13.7355 20.5353 14.1211C20.1467 14.5097 19.6985 14.7683 19.1906 14.8968C18.6858 15.0223 18.1794 15.0208 17.6716 14.8922C17.1698 14.7637 16.7262 14.5067 16.3407 14.1211L15.3907 13.1709L13.9773 14.5847L14.9272 15.5349C15.3128 15.9204 15.5682 16.3656 15.6936 16.8706C15.8222 17.3786 15.8222 17.8865 15.6936 18.3946C15.5651 18.9025 15.3066 19.3507 14.9181 19.7395C14.5356 20.122 14.0889 20.3791 13.578 20.5105C13.0701 20.639 12.5622 20.639 12.0544 20.5105C11.5526 20.382 11.109 20.1249 10.7235 19.7395C10.335 19.3507 10.0749 18.904 9.94335 18.399C9.81488 17.8911 9.81488 17.3832 9.94335 16.8752C10.078 16.3672 10.3365 15.922 10.719 15.5395L11.6781 14.5801L10.2692 13.1709L9.31003 14.1302C8.92759 14.5128 8.47942 14.7683 7.9654 14.8968C7.45752 15.0254 6.94967 15.0254 6.4418 14.8968C5.93698 14.7653 5.49182 14.5067 5.10632 14.1211ZM6.25363 12.9736C6.42802 13.1479 6.62993 13.2643 6.85939 13.3224C7.09193 13.3836 7.32293 13.3851 7.55237 13.327C7.78183 13.2689 7.98375 13.1526 8.15818 12.9782L9.11726 12.0188L8.16276 11.064C7.98834 10.8896 7.78488 10.7749 7.55237 10.7198C7.32293 10.6617 7.09346 10.6617 6.864 10.7198C6.63453 10.7779 6.43106 10.8958 6.25363 11.0733C6.07923 11.2476 5.96144 11.4481 5.90026 11.6746C5.84212 11.9041 5.84212 12.1336 5.90026 12.3631C5.96144 12.5957 6.07923 12.7992 6.25363 12.9736ZM11.8708 7.35526L12.8254 8.30996L13.7753 7.35985C13.9528 7.18232 14.069 6.98038 14.1242 6.75394C14.1822 6.52443 14.1808 6.29339 14.1196 6.06082C14.0614 5.83131 13.9451 5.62935 13.7708 5.45492C13.5964 5.28051 13.3945 5.16421 13.165 5.10607C12.9355 5.04793 12.706 5.04793 12.4766 5.10607C12.2502 5.16116 12.0482 5.27744 11.8708 5.45492C11.6964 5.62935 11.5771 5.83131 11.5129 6.06082C11.4548 6.29032 11.4548 6.51983 11.5129 6.74934C11.5771 6.97885 11.6964 7.18076 11.8708 7.35526ZM16.2693 12.0234L17.2192 12.9736C17.3937 13.1479 17.5941 13.2658 17.8204 13.327C18.0499 13.3851 18.5466 13.3836 18.773 13.3224C19.0024 13.2643 19.2059 13.1465 19.3833 12.969C19.5609 12.7915 19.677 12.5895 19.7322 12.3631C19.7934 12.1366 19.7949 11.9087 19.7368 11.6791C19.6786 11.4497 19.5623 11.2476 19.3879 11.0733C19.2105 10.8958 19.0071 10.7779 18.7776 10.7198C18.5481 10.6617 18.0499 10.6617 17.8204 10.7198C17.5971 10.7779 17.3967 10.8958 17.2192 11.0733L16.2693 12.0234ZM11.8708 18.5918C12.0452 18.7664 12.2471 18.8825 12.4766 18.9407C12.706 18.9989 12.934 18.9974 13.1604 18.9361C13.3898 18.8779 13.5918 18.7618 13.7662 18.5873C13.9436 18.4097 14.0614 18.2062 14.1196 17.9768C14.1808 17.7504 14.1822 17.5224 14.1242 17.2929C14.069 17.0603 13.9543 16.8568 13.78 16.6824L12.83 15.7322L11.8708 16.6915C11.6964 16.866 11.5787 17.0664 11.5175 17.2929C11.4593 17.5224 11.4593 17.7518 11.5175 17.9814C11.5756 18.2108 11.6934 18.4144 11.8708 18.5918ZM11.4165 12.0234L12.8254 13.4326L14.2389 12.0188L12.83 10.6097L11.4165 12.0234Z" fill="#F1E1D4"/>
<path d="M12.798 23.2942C19.0356 23.2942 24.0921 18.2377 24.0921 12.0001C24.0921 5.76248 19.0356 0.705933 12.798 0.705933C6.56045 0.705933 1.50391 5.76248 1.50391 12.0001C1.50391 18.2377 6.56045 23.2942 12.798 23.2942Z" stroke="#F1E1D4" stroke-width="0.588235"/>
</g>
<defs>
<linearGradient id="paint0_linear_1770_8786" x1="12.7976" y1="0.705933" x2="12.7976" y2="23.2933" gradientUnits="userSpaceOnUse">
<stop stop-color="#24201F"/>
<stop offset="1" stop-color="#171413"/>
</linearGradient>
<clipPath id="clip0_1770_8786">
<rect width="24" height="24" fill="white" transform="translate(0.798828)"/>
</clipPath>
</defs>
</svg>
