<svg width="25" height="24" viewBox="0 0 25 24" fill="none" xmlns="http://www.w3.org/2000/svg">
<g clip-path="url(#clip0_1770_8863)">
<path d="M11.9267 22.7904C18.0239 22.7904 22.9667 17.8477 22.9667 11.7504C22.9667 5.65323 18.0239 0.710449 11.9267 0.710449C5.82949 0.710449 0.886719 5.65323 0.886719 11.7504C0.886719 17.8477 5.82949 22.7904 11.9267 22.7904Z" fill="#342646" stroke="#342646" stroke-width="0.8"/>
<path fill-rule="evenodd" clip-rule="evenodd" d="M7.05686 9.15731L7.33996 8.28269C7.3975 8.10481 7.53789 7.96638 7.71643 7.9118L8.59533 7.64152C8.71699 7.60437 8.71797 7.43274 8.59731 7.3936L7.72236 7.11051C7.5448 7.05296 7.40637 6.91257 7.35147 6.73403L7.08151 5.85513C7.04436 5.73379 6.87273 5.73249 6.83359 5.85349L6.55049 6.7281C6.49295 6.90565 6.35255 7.04409 6.17401 7.09899L5.29511 7.36895C5.17346 7.40643 5.17214 7.57773 5.29313 7.61686L6.16809 7.89997C6.34565 7.95751 6.48408 8.09823 6.53898 8.27677L6.80894 9.15535C6.84609 9.277 7.01773 9.27832 7.05686 9.15731Z" fill="#FAFAFA"/>
<path fill-rule="evenodd" clip-rule="evenodd" d="M20.9501 8.64832C20.5877 8.24315 20.0222 8.01503 19.4725 7.92147C18.9184 7.83163 18.3372 7.83997 17.7902 7.93715C16.6833 8.12439 15.6777 8.58273 14.8007 9.14815C14.3452 9.42564 13.9568 9.7467 13.5544 10.0738C13.3605 10.2391 13.1837 10.4152 12.9996 10.5888L12.4966 11.0894C11.95 11.6607 11.4112 12.1811 10.8899 12.6124C10.3665 13.0418 9.87724 13.3679 9.39501 13.5956C8.91309 13.8245 8.39742 13.9591 7.72531 13.9807C7.0591 14.0041 6.27088 13.8839 5.42777 13.6855C4.58013 13.4878 3.69001 13.2063 2.69531 12.9639C3.04239 13.9267 3.56502 14.7776 4.23605 15.5554C4.91493 16.3197 5.76265 17.0164 6.85166 17.4745C7.92494 17.9429 9.27371 18.1108 10.5348 17.8572C11.7993 17.6139 12.909 17.0287 13.8059 16.3521C14.7052 15.6685 15.4328 14.8896 16.0461 14.0801C16.2153 13.8565 16.3049 13.7313 16.4274 13.5565L16.7661 13.0548C17.0014 12.7445 17.2157 12.3912 17.4486 12.0838C17.9052 11.4399 18.3556 10.7968 18.8788 10.2043C19.1421 9.90385 19.4198 9.61633 19.7476 9.34014C19.9111 9.20529 20.0877 9.07335 20.2834 8.95446C20.482 8.82626 20.6917 8.72591 20.9501 8.64832Z" fill="url(#paint0_linear_1770_8863)"/>
<path fill-rule="evenodd" clip-rule="evenodd" d="M20.9501 8.6483C20.5608 7.6661 19.8371 6.8393 18.8658 6.22918C17.9004 5.62579 16.5597 5.31784 15.231 5.58035C14.5746 5.70729 13.9386 5.9517 13.3806 6.27718C12.825 6.60136 12.3273 6.9916 11.8963 7.41025C11.6812 7.62028 11.4858 7.83937 11.2919 8.0597L10.789 8.7008L10.0124 9.7328C9.02227 11.0606 7.95607 12.6166 6.20637 13.0777C4.48868 13.5304 3.74369 13.1295 2.69531 12.9639C2.88701 13.4588 3.12445 13.9394 3.44635 14.3622C3.76226 14.7935 4.1354 15.1988 4.5993 15.546C4.83373 15.7128 5.08125 15.8774 5.35614 16.0171C5.6298 16.1519 5.92491 16.2707 6.23989 16.3601C6.86645 16.5318 7.57183 16.5919 8.25482 16.4996C8.93812 16.4084 9.59123 16.1919 10.1622 15.9043C10.7372 15.6194 11.2382 15.2725 11.6856 14.9063C12.5747 14.1678 13.2664 13.3519 13.8507 12.5272C14.1446 12.1148 14.4114 11.6946 14.658 11.2744L14.9484 10.774C15.0372 10.6277 15.127 10.4805 15.2182 10.3436C15.5862 9.7929 15.9461 9.3514 16.3832 9.02002C16.8142 8.68006 17.4144 8.42889 18.2165 8.37053C19.0152 8.31148 19.9374 8.42056 20.9501 8.6483Z" fill="#FAFAFA"/>
<path fill-rule="evenodd" clip-rule="evenodd" d="M16.6289 16.8092C16.6289 17.5306 17.214 18.1157 17.9354 18.1157C18.6569 18.1157 19.2412 17.5306 19.2412 16.8092C19.2412 16.0877 18.6569 15.5027 17.9354 15.5027C17.214 15.5027 16.6289 16.0877 16.6289 16.8092Z" fill="url(#paint1_linear_1770_8863)"/>
</g>
<defs>
<linearGradient id="paint0_linear_1770_8863" x1="20.8524" y1="8.30367" x2="4.7857" y2="17.231" gradientUnits="userSpaceOnUse">
<stop stop-color="#EC796B"/>
<stop offset="1" stop-color="#E175B1"/>
</linearGradient>
<linearGradient id="paint1_linear_1770_8863" x1="19.2403" y1="15.8926" x2="16.6271" y2="16.169" gradientUnits="userSpaceOnUse">
<stop stop-color="#EC796B"/>
<stop offset="1" stop-color="#E175B1"/>
</linearGradient>
<clipPath id="clip0_1770_8863">
<rect width="24" height="24" fill="white" transform="translate(0.199219)"/>
</clipPath>
</defs>
</svg>
