<svg width="25" height="24" viewBox="0 0 25 24" fill="none" xmlns="http://www.w3.org/2000/svg">
<g clip-path="url(#clip0_1770_8751)">
<mask id="mask0_1770_8751" style="mask-type:luminance" maskUnits="userSpaceOnUse" x="0" y="0" width="25" height="24">
<path d="M24.2012 0H0.201172V24H24.2012V0Z" fill="white"/>
</mask>
<g mask="url(#mask0_1770_8751)">
<path d="M12.2012 24C18.8286 24 24.2012 18.6274 24.2012 12C24.2012 5.37258 18.8286 0 12.2012 0C5.57375 0 0.201172 5.37258 0.201172 12C0.201172 18.6274 5.57375 24 12.2012 24Z" fill="#FDDE00"/>
<path d="M6.36008 8.48416C6.36008 8.48416 5.73959 9.26551 5.94642 12.8046C5.94642 12.8046 4.59055 16.2747 5.05017 18.0442C5.50978 19.8137 7.30229 19.7218 7.30229 19.7218C7.30229 19.7218 10.1749 22.2497 12.3811 20.0206C14.5873 17.7914 10.5426 9.15061 10.5426 9.15061L10.037 6.16309C10.037 6.16309 9.48548 6.59973 9.55442 9.47234C9.62337 12.3449 8.42836 10.3226 8.42836 10.3226L6.36008 8.48416Z" fill="#3C2D0C"/>
<path d="M6.58978 11.6095L5.83141 13.7468L5.55564 15.2405C5.55564 15.2405 4.61342 18.5728 8.49719 18.5268C8.49719 18.5268 11.5307 21.2385 13.507 19.4231L14.0356 18.8485L14.9548 17.4237L16.4716 12.8965C16.4716 12.8965 15.989 9.79411 12.9325 8.50718C12.9325 8.50718 12.6797 8.36929 12.2201 8.55314C12.2201 8.55314 10.9561 5.70351 10.1518 6.04822C10.1518 6.04822 9.4624 6.41592 10.0599 9.21959L8.9798 9.70218C8.9798 9.70218 7.79838 7.46225 6.70469 7.90967C5.69352 8.32333 6.58978 11.6095 6.58978 11.6095Z" fill="#E78C19"/>
<path d="M10.5192 7.45003L10.6111 8.691C10.6111 8.691 10.6801 9.40341 11.4385 9.15062C11.6528 9.07917 11.8411 8.9299 11.8212 8.68488C11.8064 8.50141 11.6783 8.3353 11.5949 8.17701C11.4389 7.88066 11.3139 7.5662 11.1324 7.28392C11.0395 7.13898 10.8484 6.81472 10.6341 6.85253C10.6341 6.85253 10.4761 6.80657 10.5192 7.45003Z" fill="#EFB99D"/>
<path d="M7.19757 8.84316C7.21206 8.83367 7.5208 8.44252 8.16276 9.3904C8.80479 10.3383 8.74016 10.2134 8.74016 10.2134C8.74016 10.2134 9.08487 10.5925 8.37821 11.0795C8.22418 11.1936 8.05615 11.2874 7.87823 11.3588C7.7677 11.4032 7.64962 11.4258 7.5305 11.4254C7.39636 11.419 7.33596 11.3505 7.30282 11.2242C7.19423 10.8106 7.07189 10.3991 7.0099 9.9753C6.96317 9.65577 6.86981 9.05773 7.19757 8.84316Z" fill="#EFB99D"/>
<path d="M14.6607 10.7532C14.6607 10.9785 14.3314 11.1611 13.9251 11.1611C13.5189 11.1611 13.1895 10.9785 13.1895 10.7532C13.1895 10.5279 13.5258 10.1962 13.9321 10.1962C14.3384 10.1962 14.6607 10.5279 14.6607 10.7532Z" fill="#FBFBFB"/>
<path d="M10.4189 12.5125C10.6375 12.1262 10.6146 11.6999 10.3678 11.5602C10.121 11.4205 9.74368 11.6204 9.52508 12.0067C9.30649 12.3929 9.32936 12.8193 9.57617 12.9589C9.82297 13.0986 10.2003 12.8987 10.4189 12.5125Z" fill="#FBFBFB"/>
<path d="M11.4615 14.3787L13.4724 13.3331C13.4724 13.3331 15.9773 12.0232 16.5863 13.0344C17.1953 14.0455 16.5863 15.5852 16.5863 15.5852C16.5863 15.5852 16.322 17.3892 14.4835 17.5501L13.4953 17.688L12.2314 17.7225C12.2314 17.7225 10.1976 17.8374 8.70386 16.7343L8.23275 16.1598C8.23275 16.1598 7.27904 14.8498 7.94549 13.9076C8.61193 12.9654 10.887 14.4247 10.887 14.4247C10.887 14.4247 11.1973 14.5856 11.4615 14.3787Z" fill="#FBFBFB"/>
<path d="M16.0236 9.1621C16.2901 9.1621 16.5062 8.94604 16.5062 8.6795C16.5062 8.41297 16.2901 8.1969 16.0236 8.1969C15.7571 8.1969 15.541 8.41297 15.541 8.6795C15.541 8.94604 15.7571 9.1621 16.0236 9.1621Z" fill="#E72D36"/>
<path d="M14.9553 7.97862C15.2219 7.97862 15.4379 7.76256 15.4379 7.49603C15.4379 7.22949 15.2219 7.01343 14.9553 7.01343C14.6888 7.01343 14.4727 7.22949 14.4727 7.49603C14.4727 7.76256 14.6888 7.97862 14.9553 7.97862Z" fill="#E72D36"/>
<path d="M13.2424 7.59935C13.5089 7.59935 13.725 7.38329 13.725 7.11676C13.725 6.85022 13.5089 6.63416 13.2424 6.63416C12.9759 6.63416 12.7598 6.85022 12.7598 7.11676C12.7598 7.38329 12.9759 7.59935 13.2424 7.59935Z" fill="#E72D36"/>
<path d="M13.6216 3.69265C13.725 5.11746 13.5193 6.4044 13.1734 6.4044C12.8276 6.4044 12.3691 5.01405 12.3691 3.69265C12.3691 3.14689 12.6552 3.06067 13.0011 3.06067C13.3469 3.06067 13.582 3.14832 13.6216 3.69265Z" fill="#E72D36"/>
<path d="M16.8197 4.58188C16.2942 5.91018 15.5501 6.9801 15.2385 6.82996C14.927 6.67982 15.1176 5.22843 15.6913 4.03817C15.9283 3.54658 16.2235 3.59313 16.5351 3.74327C16.8467 3.89341 17.0204 4.07443 16.8197 4.58188Z" fill="#E72D36"/>
<path d="M19.1051 7.16534C17.9484 8.00459 16.746 8.5084 16.5638 8.21444C16.3815 7.92047 17.3217 6.79762 18.445 6.10081C18.9089 5.81302 19.133 6.01074 19.3153 6.3047C19.4975 6.59867 19.547 6.84473 19.1051 7.16534Z" fill="#E72D36"/>
<path d="M11.3674 12.9768C11.324 12.9801 11.2819 12.9856 11.2412 12.9927C11.2463 13.0072 11.249 13.0225 11.2492 13.0379C11.2492 13.185 11.0205 13.3049 10.7326 13.3129C10.7306 13.3253 10.73 13.3378 10.7308 13.3503C10.7446 13.5283 11.052 13.6495 11.4174 13.6212C11.7828 13.5928 12.0678 13.4255 12.054 13.2476C12.0402 13.0696 11.7328 12.9484 11.3674 12.9768Z" fill="black"/>
<path d="M13.9084 12.3478C13.8651 12.3511 13.823 12.3566 13.7822 12.3636C13.7873 12.3782 13.79 12.3935 13.7902 12.4089C13.7902 12.556 13.5616 12.6759 13.2737 12.6839C13.2716 12.6963 13.271 12.7088 13.2719 12.7213C13.2857 12.8993 13.5931 13.0205 13.9585 12.9922C14.3238 12.9638 14.6088 12.7965 14.595 12.6186C14.5812 12.4406 14.2738 12.3194 13.9084 12.3478Z" fill="black"/>
<path d="M14.7415 13.0919C14.7415 13.0919 13.7333 13.3849 13.7936 13.9537C13.8539 14.5225 15.069 14.8155 15.069 14.8155C15.069 14.8155 15.3965 14.9447 15.5861 14.6345C15.7757 14.3243 16.0515 13.902 15.9739 13.2987C15.9739 13.2987 15.948 12.8506 14.7415 13.0919Z" fill="black"/>
</g>
</g>
<defs>
<clipPath id="clip0_1770_8751">
<rect width="24" height="24" fill="white" transform="translate(0.201172)"/>
</clipPath>
</defs>
</svg>
