<svg width="25" height="24" viewBox="0 0 25 24" fill="none" xmlns="http://www.w3.org/2000/svg">
<g clip-path="url(#clip0_1770_8839)">
<mask id="mask0_1770_8839" style="mask-type:luminance" maskUnits="userSpaceOnUse" x="0" y="0" width="25" height="24">
<path d="M24.5977 0H0.597656V24H24.5977V0Z" fill="white"/>
</mask>
<g mask="url(#mask0_1770_8839)">
<path d="M24.5977 12C24.5977 5.37258 19.2251 0 12.5977 0C5.97024 0 0.597656 5.37258 0.597656 12C0.597656 18.6274 5.97024 24 12.5977 24C19.2251 24 24.5977 18.6274 24.5977 12Z" fill="black"/>
<path d="M12.5941 23.3495C18.9434 23.3495 24.0906 18.2024 24.0906 11.8531C24.0906 5.50371 18.9434 0.356567 12.5941 0.356567C6.2448 0.356567 1.09766 5.50371 1.09766 11.8531C1.09766 18.2024 6.2448 23.3495 12.5941 23.3495Z" stroke="white" stroke-width="0.69423"/>
<path d="M13.7422 9.04935C12.9177 9.61844 12.0311 9.81344 11.0841 9.63324C10.1353 9.45416 9.38177 8.95834 8.82169 8.14685L7.98828 6.93938L9.18377 6.11426L10.0172 7.32176C10.3487 7.80214 10.7913 8.09334 11.3464 8.19422C11.8999 8.2962 12.4213 8.17838 12.9072 7.84298L15.0163 6.37824C15.6866 5.91269 16.6076 6.0801 17.0711 6.7518L13.7422 9.04935Z" fill="white"/>
<path d="M15.3589 13.0617C14.7887 12.2356 14.5923 11.3481 14.7707 10.4007C14.948 9.45166 15.4421 8.69846 16.2521 8.13945L17.4573 7.30762L18.284 8.50538L17.0788 9.33718C16.5993 9.66812 16.3091 10.1105 16.2092 10.6658C16.1083 11.2195 16.2269 11.7414 16.563 12.2283L18.0337 14.3459C18.4983 15.015 18.3312 15.9342 17.6608 16.3969L15.3589 13.0617Z" fill="white"/>
<path d="M11.3289 14.6835C12.1534 14.1144 13.04 13.9194 13.9871 14.0996C14.9358 14.2786 15.6893 14.7745 16.2494 15.5859L17.0828 16.7934L15.8873 17.6186L15.0539 16.4111C14.7223 15.9307 14.2798 15.6395 13.7247 15.5386C13.1712 15.4366 12.6499 15.5544 12.1639 15.8898L10.0549 17.3546C9.38456 17.8201 8.46359 17.6527 8 16.981L11.3289 14.6835Z" fill="white"/>
<path d="M9.78943 10.7764C10.3596 11.6025 10.556 12.49 10.3776 13.4374C10.2003 14.3864 9.70619 15.1396 8.89622 15.6986L7.69104 16.5304L6.86436 15.3327L8.06956 14.5009C8.54905 14.1699 8.83927 13.7276 8.93912 13.1723C9.04006 12.6186 8.9214 12.0967 8.58534 11.6098L7.11466 9.49218C6.65 8.82313 6.8171 7.90389 7.48754 7.44116L9.78943 10.7764Z" fill="white"/>
</g>
</g>
<defs>
<clipPath id="clip0_1770_8839">
<rect width="24" height="24" fill="white" transform="translate(0.597656)"/>
</clipPath>
</defs>
</svg>
