<svg width="25" height="24" viewBox="0 0 25 24" fill="none" xmlns="http://www.w3.org/2000/svg">
<g clip-path="url(#clip0_1770_8882)">
<mask id="mask0_1770_8882" style="mask-type:luminance" maskUnits="userSpaceOnUse" x="0" y="0" width="25" height="24">
<path d="M24.7969 0H0.796875V24H24.7969V0Z" fill="white"/>
</mask>
<g mask="url(#mask0_1770_8882)">
<path d="M12.7969 24C19.4243 24 24.7969 18.6274 24.7969 12C24.7969 5.37258 19.4243 0 12.7969 0C6.16946 0 0.796875 5.37258 0.796875 12C0.796875 18.6274 6.16946 24 12.7969 24Z" fill="#F3BA2F"/>
<path d="M9.88387 10.803L12.7969 7.89L15.7114 10.8045L17.4064 9.1095L12.7969 4.5L8.18888 9.108L9.88387 10.803ZM5.29688 12L6.99188 10.305L8.68687 12L6.99188 13.695L5.29688 12ZM9.88387 13.197L12.7969 16.11L15.7114 13.1955L17.4064 14.8898L12.7969 19.5L8.18888 14.892L8.18663 14.8898L9.88387 13.197ZM16.9069 12L18.6019 10.305L20.2969 12L18.6019 13.695L16.9069 12ZM14.5159 11.9985H14.5174V12L12.7969 13.7205L11.0786 12.003L11.0756 12L11.0786 11.9977L11.3794 11.6962L11.5257 11.55L12.7969 10.2795L14.5159 11.9985Z" fill="white"/>
</g>
</g>
<defs>
<clipPath id="clip0_1770_8882">
<rect width="24" height="24" fill="white" transform="translate(0.796875)"/>
</clipPath>
</defs>
</svg>
