<svg width="420" height="100" viewBox="0 0 420 100" fill="none" xmlns="http://www.w3.org/2000/svg">
<path d="M55.9469 64H79.9844V90H90V10L55.9469 64Z" fill="#AD26FD"/>
<path d="M10 90L44.0533 36H20.0157V10H10V90Z" fill="#EC9EBF"/>
<path d="M392 64.4995H364L356 79.9993L346 80L378 18L410 79.9993H400L392 64.4995ZM388 56.75L380 39.3125L378 35.4375L376 39.3125L368 56.75H388Z" fill="#F2E2FF"/>
<path d="M310 80H300V30H285V20H325V30H310V80Z" fill="#F2E2FF"/>
<path d="M220 20H254V30H230V42.5003H249.125V51.8754H230V70H254V80H220V20Z" fill="#F2E2FF"/>
<path d="M167.25 30H140V20L185.25 20L153.25 70H185.25V80H135L167.25 30Z" fill="#F2E2FF"/>
</svg>
